<svg width="120" height="120" viewBox="0 0 120 120" fill="none" xmlns="http://www.w3.org/2000/svg">
<path d="M60 120C93.1371 120 120 93.1371 120 60C120 26.8629 93.1371 0 60 0C26.8629 0 0 26.8629 0 60C0 93.1371 26.8629 120 60 120Z" fill="#2E2E2E"/>
<path d="M41.5897 52.4699L60.0563 34.0037L78.5324 52.4794L89.2776 41.7341L60.0563 12.5117L30.8449 41.7246L41.5897 52.4699ZM12.5117 60.0557L23.2573 49.3101L34.0022 60.055L23.2567 70.8006L12.5117 60.0557ZM41.5897 67.6445L60.0563 86.1107L78.5319 67.6355L89.2829 78.375L89.2776 78.3807L60.0563 107.603L30.844 78.3907L30.8287 78.3755L41.5897 67.6445ZM86.1122 60.0616L96.8578 49.316L107.603 60.0609L96.8571 70.8066L86.1122 60.0616Z" fill="#F3BA2F"/>
<path d="M70.6825 60.0515H70.6871L60.057 49.4219L52.2012 57.2774H52.2007L51.2982 58.1803L49.4367 60.0422L49.4219 60.0566L49.4367 60.0719L60.057 70.6922L70.6871 60.0626L70.6922 60.0566L70.6825 60.0515" fill="#F3BA2F"/>
</svg>
