<svg width="360" height="305" viewBox="0 0 360 305" fill="none" xmlns="http://www.w3.org/2000/svg">
<g clip-path="url(#clip0)">
<path d="M11.625 227C15.6136 227 17.8636 224.52 17.8636 220.429C17.8636 216.364 15.6136 213.909 11.804 213.909H7.58523V227H11.625ZM9.17045 225.594V215.315H11.7017C14.7699 215.315 16.3295 217.259 16.3295 220.429C16.3295 223.625 14.7699 225.594 11.5227 225.594H9.17045ZM24.1347 227.205C26.129 227.205 27.5864 226.207 28.0466 224.724L26.5892 224.315C26.2057 225.338 25.3172 225.849 24.1347 225.849C22.3641 225.849 21.1432 224.705 21.0729 222.602H28.2V221.963C28.2 218.307 26.0267 217.054 23.9812 217.054C21.3222 217.054 19.558 219.151 19.558 222.168C19.558 225.185 21.2966 227.205 24.1347 227.205ZM21.0729 221.298C21.1751 219.771 22.2554 218.409 23.9812 218.409C25.6176 218.409 26.6659 219.636 26.6659 221.298H21.0729ZM37.9243 217.182H36.288L33.5777 225.006H33.4755L30.7652 217.182H29.1289L32.7596 227H34.2936L37.9243 217.182ZM43.3804 227.205C45.3747 227.205 46.8321 226.207 47.2923 224.724L45.8349 224.315C45.4514 225.338 44.5629 225.849 43.3804 225.849C41.6098 225.849 40.3889 224.705 40.3186 222.602H47.4457V221.963C47.4457 218.307 45.2724 217.054 43.227 217.054C40.5679 217.054 38.8037 219.151 38.8037 222.168C38.8037 225.185 40.5423 227.205 43.3804 227.205ZM40.3186 221.298C40.4208 219.771 41.5011 218.409 43.227 218.409C44.8633 218.409 45.9116 219.636 45.9116 221.298H40.3186ZM50.949 213.909H49.4404V227H50.949V213.909ZM57.4006 227.205C60.0597 227.205 61.8494 225.185 61.8494 222.142C61.8494 219.074 60.0597 217.054 57.4006 217.054C54.7415 217.054 52.9517 219.074 52.9517 222.142C52.9517 225.185 54.7415 227.205 57.4006 227.205ZM57.4006 225.849C55.3807 225.849 54.4602 224.111 54.4602 222.142C54.4602 220.173 55.3807 218.409 57.4006 218.409C59.4205 218.409 60.3409 220.173 60.3409 222.142C60.3409 224.111 59.4205 225.849 57.4006 225.849ZM63.8522 230.682H65.3607V225.491H65.4885C65.8209 226.028 66.4601 227.205 68.3522 227.205C70.8067 227.205 72.5198 225.236 72.5198 222.116C72.5198 219.023 70.8067 217.054 68.3266 217.054C66.409 217.054 65.8209 218.23 65.4885 218.741H65.3096V217.182H63.8522V230.682ZM65.3351 222.091C65.3351 219.892 66.3067 218.409 68.1476 218.409C70.0652 218.409 71.0113 220.02 71.0113 222.091C71.0113 224.188 70.0397 225.849 68.1476 225.849C66.3323 225.849 65.3351 224.315 65.3351 222.091ZM78.6374 227.205C80.6317 227.205 82.0891 226.207 82.5493 224.724L81.0919 224.315C80.7084 225.338 79.8199 225.849 78.6374 225.849C76.8668 225.849 75.6459 224.705 75.5756 222.602H82.7027V221.963C82.7027 218.307 80.5294 217.054 78.484 217.054C75.8249 217.054 74.0607 219.151 74.0607 222.168C74.0607 225.185 75.7993 227.205 78.6374 227.205ZM75.5756 221.298C75.6779 219.771 76.7581 218.409 78.484 218.409C80.1203 218.409 81.1686 219.636 81.1686 221.298H75.5756ZM88.4049 227.205C90.2969 227.205 90.9361 226.028 91.2685 225.491H91.4475V227H92.9049V213.909H91.3963V218.741H91.2685C90.9361 218.23 90.348 217.054 88.4304 217.054C85.9503 217.054 84.2372 219.023 84.2372 222.116C84.2372 225.236 85.9503 227.205 88.4049 227.205ZM88.6094 225.849C86.7174 225.849 85.7458 224.188 85.7458 222.091C85.7458 220.02 86.6918 218.409 88.6094 218.409C90.4503 218.409 91.4219 219.892 91.4219 222.091C91.4219 224.315 90.4248 225.849 88.6094 225.849ZM103.229 227.23C104.942 227.23 105.837 226.31 106.144 225.67H106.22V227H107.729V220.531C107.729 217.412 105.351 217.054 104.098 217.054C102.615 217.054 100.928 217.565 100.161 219.355L101.593 219.866C101.925 219.151 102.711 218.384 104.149 218.384C105.536 218.384 106.22 219.119 106.22 220.378V220.429C106.22 221.158 105.479 221.094 103.689 221.324C101.867 221.56 99.8794 221.963 99.8794 224.213C99.8794 226.131 101.362 227.23 103.229 227.23ZM103.459 225.875C102.257 225.875 101.388 225.338 101.388 224.29C101.388 223.139 102.436 222.781 103.612 222.628C104.252 222.551 105.965 222.372 106.22 222.065V223.446C106.22 224.673 105.249 225.875 103.459 225.875ZM117.137 219.381C116.664 217.987 115.603 217.054 113.66 217.054C111.588 217.054 110.054 218.23 110.054 219.892C110.054 221.247 110.86 222.155 112.662 222.577L114.299 222.96C115.289 223.19 115.756 223.663 115.756 224.341C115.756 225.185 114.861 225.875 113.455 225.875C112.221 225.875 111.448 225.344 111.179 224.29L109.748 224.648C110.099 226.316 111.473 227.205 113.481 227.205C115.762 227.205 117.316 225.958 117.316 224.264C117.316 222.896 116.459 222.033 114.708 221.605L113.25 221.247C112.087 220.96 111.563 220.57 111.563 219.815C111.563 218.972 112.458 218.358 113.66 218.358C114.976 218.358 115.52 219.087 115.782 219.764L117.137 219.381ZM126.938 227.23C128.651 227.23 129.546 226.31 129.853 225.67H129.93V227H131.438V220.531C131.438 217.412 129.06 217.054 127.808 217.054C126.325 217.054 124.637 217.565 123.87 219.355L125.302 219.866C125.634 219.151 126.42 218.384 127.859 218.384C129.246 218.384 129.93 219.119 129.93 220.378V220.429C129.93 221.158 129.188 221.094 127.398 221.324C125.577 221.56 123.589 221.963 123.589 224.213C123.589 226.131 125.072 227.23 126.938 227.23ZM127.168 225.875C125.967 225.875 125.097 225.338 125.097 224.29C125.097 223.139 126.146 222.781 127.322 222.628C127.961 222.551 129.674 222.372 129.93 222.065V223.446C129.93 224.673 128.958 225.875 127.168 225.875ZM142.617 230.886C144.969 230.886 146.862 229.812 146.862 227.281V217.182H145.404V218.741H145.251C144.918 218.23 144.305 217.054 142.387 217.054C139.907 217.054 138.194 219.023 138.194 222.04C138.194 225.108 139.984 226.847 142.362 226.847C144.279 226.847 144.893 225.722 145.225 225.185H145.353V227.179C145.353 228.815 144.202 229.557 142.617 229.557C140.834 229.557 140.207 228.617 139.805 228.074L138.603 228.918C139.217 229.947 140.425 230.886 142.617 230.886ZM142.566 225.491C140.674 225.491 139.702 224.06 139.702 222.014C139.702 220.02 140.648 218.409 142.566 218.409C144.407 218.409 145.379 219.892 145.379 222.014C145.379 224.188 144.381 225.491 142.566 225.491ZM149.323 227H150.831V220.787C150.831 219.457 151.88 218.486 153.312 218.486C153.714 218.486 154.13 218.562 154.232 218.588V217.054C154.059 217.041 153.663 217.028 153.439 217.028C152.263 217.028 151.24 217.693 150.883 218.665H150.78V217.182H149.323V227ZM158.609 227.23C160.322 227.23 161.217 226.31 161.524 225.67H161.601V227H163.109V220.531C163.109 217.412 160.731 217.054 159.479 217.054C157.996 217.054 156.308 217.565 155.541 219.355L156.973 219.866C157.305 219.151 158.092 218.384 159.53 218.384C160.917 218.384 161.601 219.119 161.601 220.378V220.429C161.601 221.158 160.859 221.094 159.07 221.324C157.248 221.56 155.26 221.963 155.26 224.213C155.26 226.131 156.743 227.23 158.609 227.23ZM158.839 225.875C157.638 225.875 156.768 225.338 156.768 224.29C156.768 223.139 157.817 222.781 158.993 222.628C159.632 222.551 161.345 222.372 161.601 222.065V223.446C161.601 224.673 160.629 225.875 158.839 225.875ZM169.27 227.205C171.162 227.205 171.801 226.028 172.134 225.491H172.313V227H173.77V213.909H172.262V218.741H172.134C171.801 218.23 171.213 217.054 169.296 217.054C166.816 217.054 165.102 219.023 165.102 222.116C165.102 225.236 166.816 227.205 169.27 227.205ZM169.475 225.849C167.583 225.849 166.611 224.188 166.611 222.091C166.611 220.02 167.557 218.409 169.475 218.409C171.316 218.409 172.287 219.892 172.287 222.091C172.287 224.315 171.29 225.849 169.475 225.849ZM182.63 222.986C182.63 224.827 181.224 225.67 180.099 225.67C178.846 225.67 177.951 224.75 177.951 223.318V217.182H176.442V223.42C176.442 225.926 177.772 227.128 179.613 227.128C181.096 227.128 182.067 226.335 182.528 225.338H182.63V227H184.138V217.182H182.63V222.986ZM189.491 227.23C191.204 227.23 192.099 226.31 192.405 225.67H192.482V227H193.991V220.531C193.991 217.412 191.613 217.054 190.36 217.054C188.877 217.054 187.189 217.565 186.422 219.355L187.854 219.866C188.187 219.151 188.973 218.384 190.411 218.384C191.798 218.384 192.482 219.119 192.482 220.378V220.429C192.482 221.158 191.741 221.094 189.951 221.324C188.129 221.56 186.141 221.963 186.141 224.213C186.141 226.131 187.624 227.23 189.491 227.23ZM189.721 225.875C188.519 225.875 187.65 225.338 187.65 224.29C187.65 223.139 188.698 222.781 189.874 222.628C190.513 222.551 192.226 222.372 192.482 222.065V223.446C192.482 224.673 191.51 225.875 189.721 225.875ZM200.714 217.182H198.617V214.83H197.109V217.182H195.626V218.46H197.109V224.597C197.109 226.31 198.489 227.128 199.768 227.128C200.33 227.128 200.688 227.026 200.893 226.949L200.586 225.594C200.458 225.619 200.254 225.67 199.921 225.67C199.256 225.67 198.617 225.466 198.617 224.188V218.46H200.714V217.182ZM202.683 227H204.192V217.182H202.683V227ZM203.45 215.545C204.038 215.545 204.524 215.085 204.524 214.523C204.524 213.96 204.038 213.5 203.45 213.5C202.862 213.5 202.376 213.96 202.376 214.523C202.376 215.085 202.862 215.545 203.45 215.545ZM210.643 227.205C213.302 227.205 215.092 225.185 215.092 222.142C215.092 219.074 213.302 217.054 210.643 217.054C207.984 217.054 206.194 219.074 206.194 222.142C206.194 225.185 207.984 227.205 210.643 227.205ZM210.643 225.849C208.623 225.849 207.703 224.111 207.703 222.142C207.703 220.173 208.623 218.409 210.643 218.409C212.663 218.409 213.583 220.173 213.583 222.142C213.583 224.111 212.663 225.849 210.643 225.849ZM218.603 221.094C218.603 219.381 219.664 218.409 221.109 218.409C222.509 218.409 223.359 219.323 223.359 220.864V227H224.867V220.761C224.867 218.256 223.532 217.054 221.544 217.054C220.061 217.054 219.14 217.719 218.68 218.716H218.552V217.182H217.095V227H218.603V221.094ZM232.087 230.682H233.595V225.491H233.723C234.055 226.028 234.694 227.205 236.587 227.205C239.041 227.205 240.754 225.236 240.754 222.116C240.754 219.023 239.041 217.054 236.561 217.054C234.643 217.054 234.055 218.23 233.723 218.741H233.544V217.182H232.087V230.682ZM233.569 222.091C233.569 219.892 234.541 218.409 236.382 218.409C238.3 218.409 239.246 220.02 239.246 222.091C239.246 224.188 238.274 225.849 236.382 225.849C234.567 225.849 233.569 224.315 233.569 222.091ZM242.755 227H244.264V220.787C244.264 219.457 245.312 218.486 246.744 218.486C247.147 218.486 247.562 218.562 247.664 218.588V217.054C247.492 217.041 247.095 217.028 246.872 217.028C245.696 217.028 244.673 217.693 244.315 218.665H244.213V217.182H242.755V227ZM252.842 227.205C255.501 227.205 257.291 225.185 257.291 222.142C257.291 219.074 255.501 217.054 252.842 217.054C250.183 217.054 248.394 219.074 248.394 222.142C248.394 225.185 250.183 227.205 252.842 227.205ZM252.842 225.849C250.822 225.849 249.902 224.111 249.902 222.142C249.902 220.173 250.822 218.409 252.842 218.409C254.862 218.409 255.783 220.173 255.783 222.142C255.783 224.111 254.862 225.849 252.842 225.849ZM259.294 217.182V227.716C259.294 228.713 258.885 229.276 257.964 229.276H257.683V230.682H257.99C259.882 230.682 260.802 229.531 260.802 227.716V217.182H259.294ZM260.035 215.545C260.624 215.545 261.109 215.085 261.109 214.523C261.109 213.96 260.624 213.5 260.035 213.5C259.447 213.5 258.962 213.96 258.962 214.523C258.962 215.085 259.447 215.545 260.035 215.545ZM267.382 227.205C269.376 227.205 270.834 226.207 271.294 224.724L269.836 224.315C269.453 225.338 268.564 225.849 267.382 225.849C265.611 225.849 264.39 224.705 264.32 222.602H271.447V221.963C271.447 218.307 269.274 217.054 267.229 217.054C264.569 217.054 262.805 219.151 262.805 222.168C262.805 225.185 264.544 227.205 267.382 227.205ZM264.32 221.298C264.422 219.771 265.503 218.409 267.229 218.409C268.865 218.409 269.913 219.636 269.913 221.298H264.32ZM277.431 227.205C279.604 227.205 281.036 225.875 281.291 224.136H279.783C279.502 225.21 278.607 225.849 277.431 225.849C275.641 225.849 274.49 224.366 274.49 222.091C274.49 219.866 275.666 218.409 277.431 218.409C278.76 218.409 279.553 219.227 279.783 220.122H281.291C281.036 218.281 279.476 217.054 277.405 217.054C274.746 217.054 272.982 219.151 272.982 222.142C272.982 225.082 274.669 227.205 277.431 227.205ZM287.467 217.182H285.37V214.83H283.861V217.182H282.379V218.46H283.861V224.597C283.861 226.31 285.242 227.128 286.521 227.128C287.083 227.128 287.441 227.026 287.646 226.949L287.339 225.594C287.211 225.619 287.006 225.67 286.674 225.67C286.009 225.67 285.37 225.466 285.37 224.188V218.46H287.467V217.182ZM7.38068 252H8.8892V242.182H7.38068V252ZM8.14773 240.545C8.7358 240.545 9.22159 240.085 9.22159 239.523C9.22159 238.96 8.7358 238.5 8.14773 238.5C7.55966 238.5 7.07386 238.96 7.07386 239.523C7.07386 240.085 7.55966 240.545 8.14773 240.545ZM12.8607 246.094C12.8607 244.381 13.9218 243.409 15.3664 243.409C16.7662 243.409 17.6164 244.323 17.6164 245.864V252H19.1249V245.761C19.1249 243.256 17.789 242.054 15.801 242.054C14.3181 242.054 13.3976 242.719 12.9374 243.716H12.8096V242.182H11.3522V252H12.8607V246.094ZM30.6139 242.182H28.5173V239.83H27.0087V242.182H25.5258V243.46H27.0087V249.597C27.0087 251.31 28.3894 252.128 29.6678 252.128C30.2303 252.128 30.5883 252.026 30.7928 251.949L30.486 250.594C30.3582 250.619 30.1536 250.67 29.8212 250.67C29.1565 250.67 28.5173 250.466 28.5173 249.188V243.46H30.6139V242.182ZM34.3025 246.094C34.3025 244.381 35.3955 243.409 36.8849 243.409C38.3039 243.409 39.1604 244.304 39.1604 245.864V252H40.669V245.761C40.669 243.237 39.3266 242.054 37.3195 242.054C35.7727 242.054 34.8906 242.7 34.4303 243.716H34.3025V238.909H32.794V252H34.3025V246.094ZM47.2452 252.205C49.2395 252.205 50.6969 251.207 51.1571 249.724L49.6998 249.315C49.3162 250.338 48.4277 250.849 47.2452 250.849C45.4746 250.849 44.2537 249.705 44.1834 247.602H51.3105V246.963C51.3105 243.307 49.1373 242.054 47.0918 242.054C44.4327 242.054 42.6685 244.151 42.6685 247.168C42.6685 250.185 44.4071 252.205 47.2452 252.205ZM44.1834 246.298C44.2857 244.771 45.3659 243.409 47.0918 243.409C48.7282 243.409 49.7765 244.636 49.7765 246.298H44.1834ZM58.2723 252H59.8576V247.756L61.4939 245.915L66.0451 252H67.9627L62.4655 244.815L67.9627 238.909H65.8917L60.011 245.403H59.8576V238.909H58.2723V252ZM72.3992 252.23C74.1123 252.23 75.0071 251.31 75.314 250.67H75.3907V252H76.8992V245.531C76.8992 242.412 74.5213 242.054 73.2685 242.054C71.7855 242.054 70.098 242.565 69.331 244.355L70.7628 244.866C71.0952 244.151 71.8814 243.384 73.3196 243.384C74.7067 243.384 75.3907 244.119 75.3907 245.378V245.429C75.3907 246.158 74.6492 246.094 72.8594 246.324C71.0377 246.56 69.0497 246.963 69.0497 249.213C69.0497 251.131 70.5327 252.23 72.3992 252.23ZM72.6293 250.875C71.4276 250.875 70.5583 250.338 70.5583 249.29C70.5583 248.139 71.6066 247.781 72.7827 247.628C73.4219 247.551 75.135 247.372 75.3907 247.065V248.446C75.3907 249.673 74.4191 250.875 72.6293 250.875ZM83.0599 252.205C84.952 252.205 85.5912 251.028 85.9236 250.491H86.1026V252H87.5599V238.909H86.0514V243.741H85.9236C85.5912 243.23 85.0031 242.054 83.0855 242.054C80.6054 242.054 78.8923 244.023 78.8923 247.116C78.8923 250.236 80.6054 252.205 83.0599 252.205ZM83.2645 250.849C81.3724 250.849 80.4009 249.188 80.4009 247.091C80.4009 245.02 81.3469 243.409 83.2645 243.409C85.1054 243.409 86.077 244.892 86.077 247.091C86.077 249.315 85.0798 250.849 83.2645 250.849ZM90.2322 252H91.7408V242.182H90.2322V252ZM90.9993 240.545C91.5874 240.545 92.0732 240.085 92.0732 239.523C92.0732 238.96 91.5874 238.5 90.9993 238.5C90.4112 238.5 89.9254 238.96 89.9254 239.523C89.9254 240.085 90.4112 240.545 90.9993 240.545ZM94.2037 252H95.7122V245.787C95.7122 244.457 96.7605 243.486 98.1924 243.486C98.5951 243.486 99.0105 243.562 99.1128 243.588V242.054C98.9402 242.041 98.5439 242.028 98.3202 242.028C97.1441 242.028 96.1213 242.693 95.7634 243.665H95.6611V242.182H94.2037V252ZM102.11 246.094C102.11 244.381 103.203 243.409 104.692 243.409C106.111 243.409 106.967 244.304 106.967 245.864V252H108.476V245.761C108.476 243.237 107.134 242.054 105.127 242.054C103.58 242.054 102.698 242.7 102.237 243.716H102.11V238.909H100.601V252H102.11V246.094ZM113.825 252.23C115.538 252.23 116.433 251.31 116.74 250.67H116.816V252H118.325V245.531C118.325 242.412 115.947 242.054 114.694 242.054C113.211 242.054 111.524 242.565 110.757 244.355L112.189 244.866C112.521 244.151 113.307 243.384 114.745 243.384C116.132 243.384 116.816 244.119 116.816 245.378V245.429C116.816 246.158 116.075 246.094 114.285 246.324C112.463 246.56 110.476 246.963 110.476 249.213C110.476 251.131 111.958 252.23 113.825 252.23ZM114.055 250.875C112.853 250.875 111.984 250.338 111.984 249.29C111.984 248.139 113.032 247.781 114.208 247.628C114.848 247.551 116.561 247.372 116.816 247.065V248.446C116.816 249.673 115.845 250.875 114.055 250.875ZM127.733 244.381C127.26 242.987 126.199 242.054 124.256 242.054C122.185 242.054 120.651 243.23 120.651 244.892C120.651 246.247 121.456 247.155 123.258 247.577L124.895 247.96C125.886 248.19 126.352 248.663 126.352 249.341C126.352 250.185 125.457 250.875 124.051 250.875C122.817 250.875 122.044 250.344 121.776 249.29L120.344 249.648C120.695 251.316 122.07 252.205 124.077 252.205C126.359 252.205 127.912 250.958 127.912 249.264C127.912 247.896 127.055 247.033 125.304 246.605L123.847 246.247C122.683 245.96 122.159 245.57 122.159 244.815C122.159 243.972 123.054 243.358 124.256 243.358C125.572 243.358 126.116 244.087 126.378 244.764L127.733 244.381ZM143.441 238.909V247.449C143.441 249.366 142.124 250.747 139.938 250.747C137.752 250.747 136.435 249.366 136.435 247.449V238.909H134.85V247.577C134.85 250.261 136.857 252.23 139.938 252.23C143.019 252.23 145.026 250.261 145.026 247.577V238.909H143.441ZM149.195 246.094C149.195 244.381 150.257 243.409 151.701 243.409C153.101 243.409 153.951 244.323 153.951 245.864V252H155.46V245.761C155.46 243.256 154.124 242.054 152.136 242.054C150.653 242.054 149.732 242.719 149.272 243.716H149.144V242.182H147.687V252H149.195V246.094ZM157.916 252H159.425V242.182H157.916V252ZM158.683 240.545C159.271 240.545 159.757 240.085 159.757 239.523C159.757 238.96 159.271 238.5 158.683 238.5C158.095 238.5 157.609 238.96 157.609 239.523C157.609 240.085 158.095 240.545 158.683 240.545ZM169.916 242.182H168.28L165.57 250.006H165.467L162.757 242.182H161.121L164.751 252H166.285L169.916 242.182ZM175.372 252.205C177.366 252.205 178.824 251.207 179.284 249.724L177.827 249.315C177.443 250.338 176.555 250.849 175.372 250.849C173.602 250.849 172.381 249.705 172.31 247.602H179.438V246.963C179.438 243.307 177.264 242.054 175.219 242.054C172.56 242.054 170.795 244.151 170.795 247.168C170.795 250.185 172.534 252.205 175.372 252.205ZM172.31 246.298C172.413 244.771 173.493 243.409 175.219 243.409C176.855 243.409 177.903 244.636 177.903 246.298H172.31ZM181.432 252H182.941V245.787C182.941 244.457 183.989 243.486 185.421 243.486C185.824 243.486 186.239 243.562 186.341 243.588V242.054C186.169 242.041 185.772 242.028 185.549 242.028C184.373 242.028 183.35 242.693 182.992 243.665H182.89V242.182H181.432V252ZM194.784 244.381C194.311 242.987 193.25 242.054 191.307 242.054C189.236 242.054 187.702 243.23 187.702 244.892C187.702 246.247 188.507 247.155 190.31 247.577L191.946 247.96C192.937 248.19 193.403 248.663 193.403 249.341C193.403 250.185 192.508 250.875 191.102 250.875C189.869 250.875 189.095 250.344 188.827 249.29L187.395 249.648C187.746 251.316 189.121 252.205 191.128 252.205C193.41 252.205 194.963 250.958 194.963 249.264C194.963 247.896 194.106 247.033 192.355 246.605L190.898 246.247C189.734 245.96 189.21 245.57 189.21 244.815C189.21 243.972 190.105 243.358 191.307 243.358C192.624 243.358 193.167 244.087 193.429 244.764L194.784 244.381ZM196.934 252H198.442V242.182H196.934V252ZM197.701 240.545C198.289 240.545 198.775 240.085 198.775 239.523C198.775 238.96 198.289 238.5 197.701 238.5C197.113 238.5 196.627 238.96 196.627 239.523C196.627 240.085 197.113 240.545 197.701 240.545ZM205.175 242.182H203.079V239.83H201.57V242.182H200.087V243.46H201.57V249.597C201.57 251.31 202.951 252.128 204.229 252.128C204.792 252.128 205.15 252.026 205.354 251.949L205.047 250.594C204.919 250.619 204.715 250.67 204.383 250.67C203.718 250.67 203.079 250.466 203.079 249.188V243.46H205.175V242.182ZM208.116 255.682C209.477 255.682 210.436 254.96 211.005 253.432L215.186 242.207L213.536 242.182L210.826 250.006H210.724L208.014 242.182H206.377L210.008 252.051L209.727 252.818C209.177 254.314 208.499 254.455 207.4 254.173L207.017 255.503C207.17 255.58 207.605 255.682 208.116 255.682ZM221.849 252H226.579C229.672 252 230.951 250.491 230.951 248.523C230.951 246.452 229.519 245.327 228.317 245.25V245.122C229.442 244.815 230.439 244.074 230.439 242.386C230.439 240.469 229.161 238.909 226.425 238.909H221.849V252ZM223.434 250.594V246.043H226.655C228.368 246.043 229.442 247.193 229.442 248.523C229.442 249.673 228.65 250.594 226.579 250.594H223.434ZM223.434 244.662V240.315H226.425C228.164 240.315 228.931 241.236 228.931 242.386C228.931 243.767 227.806 244.662 226.374 244.662H223.434ZM234.56 238.909H233.051V252H234.56V238.909ZM241.011 252.205C243.67 252.205 245.46 250.185 245.46 247.142C245.46 244.074 243.67 242.054 241.011 242.054C238.352 242.054 236.562 244.074 236.562 247.142C236.562 250.185 238.352 252.205 241.011 252.205ZM241.011 250.849C238.991 250.849 238.071 249.111 238.071 247.142C238.071 245.173 238.991 243.409 241.011 243.409C243.031 243.409 243.951 245.173 243.951 247.142C243.951 249.111 243.031 250.849 241.011 250.849ZM251.451 252.205C253.625 252.205 255.056 250.875 255.312 249.136H253.804C253.522 250.21 252.627 250.849 251.451 250.849C249.662 250.849 248.511 249.366 248.511 247.091C248.511 244.866 249.687 243.409 251.451 243.409C252.781 243.409 253.574 244.227 253.804 245.122H255.312C255.056 243.281 253.497 242.054 251.426 242.054C248.767 242.054 247.002 244.151 247.002 247.142C247.002 250.082 248.69 252.205 251.451 252.205ZM257.217 252H258.726V248.325L259.781 247.347L263.456 252H265.374L260.918 246.375L265.067 242.182H263.2L258.905 246.554H258.726V238.909H257.217V252ZM270.293 252.205C272.466 252.205 273.898 250.875 274.154 249.136H272.645C272.364 250.21 271.469 250.849 270.293 250.849C268.503 250.849 267.352 249.366 267.352 247.091C267.352 244.866 268.529 243.409 270.293 243.409C271.622 243.409 272.415 244.227 272.645 245.122H274.154C273.898 243.281 272.338 242.054 270.267 242.054C267.608 242.054 265.844 244.151 265.844 247.142C265.844 250.082 267.531 252.205 270.293 252.205ZM277.567 246.094C277.567 244.381 278.66 243.409 280.15 243.409C281.569 243.409 282.425 244.304 282.425 245.864V252H283.934V245.761C283.934 243.237 282.591 242.054 280.584 242.054C279.038 242.054 278.155 242.7 277.695 243.716H277.567V238.909H276.059V252H277.567V246.094ZM289.283 252.23C290.996 252.23 291.891 251.31 292.198 250.67H292.274V252H293.783V245.531C293.783 242.412 291.405 242.054 290.152 242.054C288.669 242.054 286.982 242.565 286.215 244.355L287.646 244.866C287.979 244.151 288.765 243.384 290.203 243.384C291.59 243.384 292.274 244.119 292.274 245.378V245.429C292.274 246.158 291.533 246.094 289.743 246.324C287.921 246.56 285.933 246.963 285.933 249.213C285.933 251.131 287.416 252.23 289.283 252.23ZM289.513 250.875C288.311 250.875 287.442 250.338 287.442 249.29C287.442 248.139 288.49 247.781 289.666 247.628C290.305 247.551 292.019 247.372 292.274 247.065V248.446C292.274 249.673 291.303 250.875 289.513 250.875ZM296.236 252H297.745V242.182H296.236V252ZM297.003 240.545C297.591 240.545 298.077 240.085 298.077 239.523C298.077 238.96 297.591 238.5 297.003 238.5C296.415 238.5 295.929 238.96 295.929 239.523C295.929 240.085 296.415 240.545 297.003 240.545ZM301.716 246.094C301.716 244.381 302.777 243.409 304.222 243.409C305.622 243.409 306.472 244.323 306.472 245.864V252H307.98V245.761C307.98 243.256 306.644 242.054 304.657 242.054C303.174 242.054 302.253 242.719 301.793 243.716H301.665V242.182H300.208V252H301.716V246.094ZM11.625 277C15.6136 277 17.8636 274.52 17.8636 270.429C17.8636 266.364 15.6136 263.909 11.804 263.909H7.58523V277H11.625ZM9.17045 275.594V265.315H11.7017C14.7699 265.315 16.3295 267.259 16.3295 270.429C16.3295 273.625 14.7699 275.594 11.5227 275.594H9.17045ZM24.1347 277.205C26.129 277.205 27.5864 276.207 28.0466 274.724L26.5892 274.315C26.2057 275.338 25.3172 275.849 24.1347 275.849C22.3641 275.849 21.1432 274.705 21.0729 272.602H28.2V271.963C28.2 268.307 26.0267 267.054 23.9812 267.054C21.3222 267.054 19.558 269.151 19.558 272.168C19.558 275.185 21.2966 277.205 24.1347 277.205ZM21.0729 271.298C21.1751 269.771 22.2554 268.409 23.9812 268.409C25.6176 268.409 26.6659 269.636 26.6659 271.298H21.0729ZM37.9243 267.182H36.288L33.5777 275.006H33.4755L30.7652 267.182H29.1289L32.7596 277H34.2936L37.9243 267.182ZM43.3804 277.205C45.3747 277.205 46.8321 276.207 47.2923 274.724L45.8349 274.315C45.4514 275.338 44.5629 275.849 43.3804 275.849C41.6098 275.849 40.3889 274.705 40.3186 272.602H47.4457V271.963C47.4457 268.307 45.2724 267.054 43.227 267.054C40.5679 267.054 38.8037 269.151 38.8037 272.168C38.8037 275.185 40.5423 277.205 43.3804 277.205ZM40.3186 271.298C40.4208 269.771 41.5011 268.409 43.227 268.409C44.8633 268.409 45.9116 269.636 45.9116 271.298H40.3186ZM50.949 263.909H49.4404V277H50.949V263.909ZM57.4006 277.205C60.0597 277.205 61.8494 275.185 61.8494 272.142C61.8494 269.074 60.0597 267.054 57.4006 267.054C54.7415 267.054 52.9517 269.074 52.9517 272.142C52.9517 275.185 54.7415 277.205 57.4006 277.205ZM57.4006 275.849C55.3807 275.849 54.4602 274.111 54.4602 272.142C54.4602 270.173 55.3807 268.409 57.4006 268.409C59.4205 268.409 60.3409 270.173 60.3409 272.142C60.3409 274.111 59.4205 275.849 57.4006 275.849ZM63.8522 280.682H65.3607V275.491H65.4885C65.8209 276.028 66.4601 277.205 68.3522 277.205C70.8067 277.205 72.5198 275.236 72.5198 272.116C72.5198 269.023 70.8067 267.054 68.3266 267.054C66.409 267.054 65.8209 268.23 65.4885 268.741H65.3096V267.182H63.8522V280.682ZM65.3351 272.091C65.3351 269.892 66.3067 268.409 68.1476 268.409C70.0652 268.409 71.0113 270.02 71.0113 272.091C71.0113 274.188 70.0397 275.849 68.1476 275.849C66.3323 275.849 65.3351 274.315 65.3351 272.091ZM78.6374 277.205C80.6317 277.205 82.0891 276.207 82.5493 274.724L81.0919 274.315C80.7084 275.338 79.8199 275.849 78.6374 275.849C76.8668 275.849 75.6459 274.705 75.5756 272.602H82.7027V271.963C82.7027 268.307 80.5294 267.054 78.484 267.054C75.8249 267.054 74.0607 269.151 74.0607 272.168C74.0607 275.185 75.7993 277.205 78.6374 277.205ZM75.5756 271.298C75.6779 269.771 76.7581 268.409 78.484 268.409C80.1203 268.409 81.1686 269.636 81.1686 271.298H75.5756ZM84.6975 277H86.206V270.787C86.206 269.457 87.2543 268.486 88.6861 268.486C89.0888 268.486 89.5043 268.562 89.6066 268.588V267.054C89.434 267.041 89.0377 267.028 88.814 267.028C87.6378 267.028 86.6151 267.693 86.2571 268.665H86.1549V267.182H84.6975V277ZM106.596 268C106.11 265.315 103.962 263.73 101.329 263.73C97.9794 263.73 95.5504 266.312 95.5504 270.455C95.5504 274.597 97.9794 277.179 101.329 277.179C103.962 277.179 106.11 275.594 106.596 272.909H105.011C104.627 274.724 103.067 275.696 101.329 275.696C98.951 275.696 97.0845 273.855 97.0845 270.455C97.0845 267.054 98.951 265.213 101.329 265.213C103.067 265.213 104.627 266.185 105.011 268H106.596ZM112.769 277.205C114.764 277.205 116.221 276.207 116.681 274.724L115.224 274.315C114.84 275.338 113.952 275.849 112.769 275.849C110.999 275.849 109.778 274.705 109.708 272.602H116.835V271.963C116.835 268.307 114.661 267.054 112.616 267.054C109.957 267.054 108.193 269.151 108.193 272.168C108.193 275.185 109.931 277.205 112.769 277.205ZM109.708 271.298C109.81 269.771 110.89 268.409 112.616 268.409C114.252 268.409 115.301 269.636 115.301 271.298H109.708ZM118.83 277H120.338V270.787C120.338 269.457 121.386 268.486 122.818 268.486C123.221 268.486 123.636 268.562 123.739 268.588V267.054C123.566 267.041 123.17 267.028 122.946 267.028C121.77 267.028 120.747 267.693 120.389 268.665H120.287V267.182H118.83V277ZM130.112 267.182H128.015V264.83H126.507V267.182H125.024V268.46H126.507V274.597C126.507 276.31 127.887 277.128 129.166 277.128C129.728 277.128 130.086 277.026 130.291 276.949L129.984 275.594C129.856 275.619 129.652 275.67 129.319 275.67C128.655 275.67 128.015 275.466 128.015 274.188V268.46H130.112V267.182ZM132.081 277H133.59V267.182H132.081V277ZM132.848 265.545C133.436 265.545 133.922 265.085 133.922 264.523C133.922 263.96 133.436 263.5 132.848 263.5C132.26 263.5 131.774 263.96 131.774 264.523C131.774 265.085 132.26 265.545 132.848 265.545ZM140.425 267.182H138.226V266.185C138.226 265.213 138.635 264.702 139.632 264.702C140.067 264.702 140.322 264.804 140.476 264.855L140.911 263.551C140.68 263.449 140.22 263.295 139.479 263.295C138.072 263.295 136.717 264.139 136.717 265.827V267.182H135.132V268.46H136.717V277H138.226V268.46H140.425V267.182ZM142.239 277H143.747V267.182H142.239V277ZM143.006 265.545C143.594 265.545 144.08 265.085 144.08 264.523C144.08 263.96 143.594 263.5 143.006 263.5C142.418 263.5 141.932 263.96 141.932 264.523C141.932 265.085 142.418 265.545 143.006 265.545ZM150.199 277.205C152.372 277.205 153.804 275.875 154.06 274.136H152.551C152.27 275.21 151.375 275.849 150.199 275.849C148.409 275.849 147.259 274.366 147.259 272.091C147.259 269.866 148.435 268.409 150.199 268.409C151.529 268.409 152.321 269.227 152.551 270.122H154.06C153.804 268.281 152.244 267.054 150.173 267.054C147.514 267.054 145.75 269.151 145.75 272.142C145.75 275.082 147.438 277.205 150.199 277.205ZM158.854 277.23C160.567 277.23 161.462 276.31 161.769 275.67H161.846V277H163.354V270.531C163.354 267.412 160.976 267.054 159.724 267.054C158.241 267.054 156.553 267.565 155.786 269.355L157.218 269.866C157.55 269.151 158.337 268.384 159.775 268.384C161.162 268.384 161.846 269.119 161.846 270.378V270.429C161.846 271.158 161.104 271.094 159.314 271.324C157.493 271.56 155.505 271.963 155.505 274.213C155.505 276.131 156.988 277.23 158.854 277.23ZM159.084 275.875C157.883 275.875 157.013 275.338 157.013 274.29C157.013 273.139 158.062 272.781 159.238 272.628C159.877 272.551 161.59 272.372 161.846 272.065V273.446C161.846 274.673 160.874 275.875 159.084 275.875ZM170.078 267.182H167.981V264.83H166.472V267.182H164.989V268.46H166.472V274.597C166.472 276.31 167.853 277.128 169.132 277.128C169.694 277.128 170.052 277.026 170.257 276.949L169.95 275.594C169.822 275.619 169.617 275.67 169.285 275.67C168.62 275.67 167.981 275.466 167.981 274.188V268.46H170.078V267.182ZM176.058 277.205C178.052 277.205 179.509 276.207 179.97 274.724L178.512 274.315C178.129 275.338 177.24 275.849 176.058 275.849C174.287 275.849 173.066 274.705 172.996 272.602H180.123V271.963C180.123 268.307 177.95 267.054 175.904 267.054C173.245 267.054 171.481 269.151 171.481 272.168C171.481 275.185 173.22 277.205 176.058 277.205ZM172.996 271.298C173.098 269.771 174.178 268.409 175.904 268.409C177.541 268.409 178.589 269.636 178.589 271.298H172.996ZM187.085 277H188.67V272.219H191.534C194.583 272.219 195.957 270.365 195.957 268.051C195.957 265.737 194.583 263.909 191.508 263.909H187.085V277ZM188.67 270.812V265.315H191.457C193.586 265.315 194.397 266.479 194.397 268.051C194.397 269.624 193.586 270.812 191.483 270.812H188.67ZM198.006 277H199.515V270.787C199.515 269.457 200.563 268.486 201.995 268.486C202.397 268.486 202.813 268.562 202.915 268.588V267.054C202.743 267.041 202.346 267.028 202.123 267.028C200.946 267.028 199.924 267.693 199.566 268.665H199.463V267.182H198.006V277ZM208.093 277.205C210.752 277.205 212.542 275.185 212.542 272.142C212.542 269.074 210.752 267.054 208.093 267.054C205.434 267.054 203.644 269.074 203.644 272.142C203.644 275.185 205.434 277.205 208.093 277.205ZM208.093 275.849C206.073 275.849 205.153 274.111 205.153 272.142C205.153 270.173 206.073 268.409 208.093 268.409C210.113 268.409 211.033 270.173 211.033 272.142C211.033 274.111 210.113 275.849 208.093 275.849ZM218.508 280.886C220.86 280.886 222.752 279.812 222.752 277.281V267.182H221.295V268.741H221.141C220.809 268.23 220.195 267.054 218.278 267.054C215.798 267.054 214.085 269.023 214.085 272.04C214.085 275.108 215.874 276.847 218.252 276.847C220.17 276.847 220.783 275.722 221.116 275.185H221.244V277.179C221.244 278.815 220.093 279.557 218.508 279.557C216.724 279.557 216.098 278.617 215.695 278.074L214.494 278.918C215.107 279.947 216.315 280.886 218.508 280.886ZM218.457 275.491C216.565 275.491 215.593 274.06 215.593 272.014C215.593 270.02 216.539 268.409 218.457 268.409C220.298 268.409 221.269 269.892 221.269 272.014C221.269 274.188 220.272 275.491 218.457 275.491ZM225.213 277H226.722V270.787C226.722 269.457 227.77 268.486 229.202 268.486C229.605 268.486 230.02 268.562 230.123 268.588V267.054C229.95 267.041 229.554 267.028 229.33 267.028C228.154 267.028 227.131 267.693 226.773 268.665H226.671V267.182H225.213V277ZM234.5 277.23C236.213 277.23 237.108 276.31 237.415 275.67H237.491V277H239V270.531C239 267.412 236.622 267.054 235.369 267.054C233.886 267.054 232.199 267.565 231.432 269.355L232.864 269.866C233.196 269.151 233.982 268.384 235.42 268.384C236.807 268.384 237.491 269.119 237.491 270.378V270.429C237.491 271.158 236.75 271.094 234.96 271.324C233.138 271.56 231.151 271.963 231.151 274.213C231.151 276.131 232.633 277.23 234.5 277.23ZM234.73 275.875C233.528 275.875 232.659 275.338 232.659 274.29C232.659 273.139 233.707 272.781 234.883 272.628C235.523 272.551 237.236 272.372 237.491 272.065V273.446C237.491 274.673 236.52 275.875 234.73 275.875ZM241.453 277H242.962V270.864C242.962 269.425 244.01 268.409 245.186 268.409C246.33 268.409 247.129 269.157 247.129 270.276V277H248.664V270.608C248.664 269.342 249.456 268.409 250.837 268.409C251.911 268.409 252.831 268.978 252.831 270.429V277H254.34V270.429C254.34 268.121 253.1 267.054 251.348 267.054C249.942 267.054 248.913 267.7 248.408 268.716H248.306C247.82 267.668 246.963 267.054 245.672 267.054C244.394 267.054 243.448 267.668 243.039 268.716H242.911V267.182H241.453V277ZM261.535 277H269.793V275.594H263.708V275.491L266.648 272.347C268.898 269.937 269.563 268.812 269.563 267.361C269.563 265.341 267.927 263.73 265.626 263.73C263.331 263.73 261.586 265.29 261.586 267.591H263.094C263.094 266.102 264.06 265.111 265.575 265.111C266.994 265.111 268.08 265.98 268.08 267.361C268.08 268.569 267.371 269.464 265.856 271.119L261.535 275.849V277ZM276.403 277.179C279.292 277.179 280.954 274.731 280.954 270.455C280.954 266.21 279.267 263.73 276.403 263.73C273.54 263.73 271.852 266.21 271.852 270.455C271.852 274.731 273.514 277.179 276.403 277.179ZM276.403 275.773C274.498 275.773 273.386 273.862 273.386 270.455C273.386 267.054 274.511 265.111 276.403 265.111C278.295 265.111 279.42 267.054 279.42 270.455C279.42 273.862 278.308 275.773 276.403 275.773ZM283.083 277H291.342V275.594H285.257V275.491L288.197 272.347C290.447 269.937 291.112 268.812 291.112 267.361C291.112 265.341 289.475 263.73 287.174 263.73C284.879 263.73 283.134 265.29 283.134 267.591H284.643C284.643 266.102 285.608 265.111 287.123 265.111C288.542 265.111 289.629 265.98 289.629 267.361C289.629 268.569 288.919 269.464 287.404 271.119L283.083 275.849V277ZM298.284 263.909H296.699L293.426 266.082V267.693L296.622 265.571H296.699V277H298.284V263.909Z" fill="black"/>
<path d="M21.704 22.86C25.552 22.86 28.9147 23.6053 31.792 25.096C34.704 26.552 36.94 28.6667 38.5 31.44C40.0947 34.1787 40.892 37.3853 40.892 41.06C40.892 44.7347 40.0947 47.924 38.5 50.628C36.94 53.332 34.704 55.412 31.792 56.868C28.9147 58.2893 25.552 59 21.704 59H9.9V22.86H21.704ZM21.704 54.164C25.9333 54.164 29.1747 53.02 31.428 50.732C33.6813 48.444 34.808 45.22 34.808 41.06C34.808 36.8653 33.6813 33.5893 31.428 31.232C29.1747 28.8747 25.9333 27.696 21.704 27.696H15.828V54.164H21.704ZM71.9872 43.972C71.9872 45.0467 71.9179 46.0173 71.7792 46.884H49.8872C50.0605 49.172 50.9099 51.0093 52.4352 52.396C53.9605 53.7827 55.8325 54.476 58.0512 54.476C61.2405 54.476 63.4939 53.1413 64.8112 50.472H71.2072C70.3405 53.1067 68.7632 55.2733 66.4752 56.972C64.2219 58.636 61.4139 59.468 58.0512 59.468C55.3125 59.468 52.8512 58.8613 50.6672 57.648C48.5179 56.4 46.8192 54.6667 45.5712 52.448C44.3579 50.1947 43.7512 47.5947 43.7512 44.648C43.7512 41.7013 44.3405 39.1187 45.5192 36.9C46.7325 34.6467 48.4139 32.9133 50.5632 31.7C52.7472 30.4867 55.2432 29.88 58.0512 29.88C60.7552 29.88 63.1645 30.4693 65.2792 31.648C67.3939 32.8267 69.0405 34.4907 70.2192 36.64C71.3979 38.7547 71.9872 41.1987 71.9872 43.972ZM65.7992 42.1C65.7645 39.916 64.9845 38.1653 63.4592 36.848C61.9339 35.5307 60.0445 34.872 57.7912 34.872C55.7459 34.872 53.9952 35.5307 52.5392 36.848C51.0832 38.1307 50.2165 39.8813 49.9392 42.1H65.7992Z" fill="url(#paint0_linear)"/>
<path d="M74.8049 44.648C74.8049 41.7013 75.3943 39.1187 76.5729 36.9C77.7863 34.6467 79.4503 32.9133 81.5649 31.7C83.6796 30.4867 86.1063 29.88 88.8449 29.88C92.3116 29.88 95.1716 30.712 97.4249 32.376C99.7129 34.0053 101.256 36.3453 102.053 39.396H95.6569C95.1369 37.9747 94.3049 36.8653 93.1609 36.068C92.0169 35.2707 90.5783 34.872 88.8449 34.872C86.4183 34.872 84.4769 35.7387 83.0209 37.472C81.5996 39.1707 80.8889 41.5627 80.8889 44.648C80.8889 47.7333 81.5996 50.1427 83.0209 51.876C84.4769 53.6093 86.4183 54.476 88.8449 54.476C92.2769 54.476 94.5476 52.968 95.6569 49.952H102.053C101.221 52.864 99.6609 55.1867 97.3729 56.92C95.0849 58.6187 92.2423 59.468 88.8449 59.468C86.1063 59.468 83.6796 58.8613 81.5649 57.648C79.4503 56.4 77.7863 54.6667 76.5729 52.448C75.3943 50.1947 74.8049 47.5947 74.8049 44.648ZM133.181 43.972C133.181 45.0467 133.111 46.0173 132.973 46.884H111.081C111.254 49.172 112.103 51.0093 113.629 52.396C115.154 53.7827 117.026 54.476 119.245 54.476C122.434 54.476 124.687 53.1413 126.005 50.472H132.401C131.534 53.1067 129.957 55.2733 127.669 56.972C125.415 58.636 122.607 59.468 119.245 59.468C116.506 59.468 114.045 58.8613 111.861 57.648C109.711 56.4 108.013 54.6667 106.765 52.448C105.551 50.1947 104.945 47.5947 104.945 44.648C104.945 41.7013 105.534 39.1187 106.713 36.9C107.926 34.6467 109.607 32.9133 111.757 31.7C113.941 30.4867 116.437 29.88 119.245 29.88C121.949 29.88 124.358 30.4693 126.473 31.648C128.587 32.8267 130.234 34.4907 131.413 36.64C132.591 38.7547 133.181 41.1987 133.181 43.972ZM126.993 42.1C126.958 39.916 126.178 38.1653 124.653 36.848C123.127 35.5307 121.238 34.872 118.985 34.872C116.939 34.872 115.189 35.5307 113.733 36.848C112.277 38.1307 111.41 39.8813 111.133 42.1H126.993ZM152.43 29.88C154.684 29.88 156.694 30.348 158.462 31.284C160.265 32.22 161.669 33.6067 162.674 35.444C163.68 37.2813 164.182 39.5 164.182 42.1V59H158.306V42.984C158.306 40.4187 157.665 38.46 156.382 37.108C155.1 35.7213 153.349 35.028 151.13 35.028C148.912 35.028 147.144 35.7213 145.826 37.108C144.544 38.46 143.902 40.4187 143.902 42.984V59H137.974V30.348H143.902V33.624C144.873 32.4453 146.104 31.5267 147.594 30.868C149.12 30.2093 150.732 29.88 152.43 29.88ZM177.62 35.184V51.044C177.62 52.1187 177.863 52.8987 178.348 53.384C178.868 53.8347 179.735 54.06 180.948 54.06H184.588V59H179.908C177.239 59 175.193 58.376 173.772 57.128C172.351 55.88 171.64 53.852 171.64 51.044V35.184H168.26V30.348H171.64V23.224H177.62V30.348H184.588V35.184H177.62ZM194.94 34.508C195.806 33.052 196.95 31.9253 198.372 31.128C199.828 30.296 201.544 29.88 203.52 29.88V36.016H202.012C199.689 36.016 197.921 36.6053 196.708 37.784C195.529 38.9627 194.94 41.008 194.94 43.92V59H189.012V30.348H194.94V34.508ZM205.953 44.544C205.953 41.6667 206.542 39.1187 207.721 36.9C208.934 34.6813 210.563 32.9653 212.609 31.752C214.689 30.504 216.977 29.88 219.473 29.88C221.726 29.88 223.685 30.3307 225.349 31.232C227.047 32.0987 228.399 33.1907 229.405 34.508V30.348H235.385V59H229.405V54.736C228.399 56.088 227.03 57.2147 225.297 58.116C223.563 59.0173 221.587 59.468 219.369 59.468C216.907 59.468 214.654 58.844 212.609 57.596C210.563 56.3133 208.934 54.5453 207.721 52.292C206.542 50.004 205.953 47.4213 205.953 44.544ZM229.405 44.648C229.405 42.672 228.989 40.956 228.157 39.5C227.359 38.044 226.302 36.9347 224.985 36.172C223.667 35.4093 222.246 35.028 220.721 35.028C219.195 35.028 217.774 35.4093 216.457 36.172C215.139 36.9 214.065 37.992 213.233 39.448C212.435 40.8693 212.037 42.568 212.037 44.544C212.037 46.52 212.435 48.2533 213.233 49.744C214.065 51.2347 215.139 52.3787 216.457 53.176C217.809 53.9387 219.23 54.32 220.721 54.32C222.246 54.32 223.667 53.9387 224.985 53.176C226.302 52.4133 227.359 51.304 228.157 49.848C228.989 48.3573 229.405 46.624 229.405 44.648ZM248.059 20.52V59H242.131V20.52H248.059ZM257.818 26.552C256.743 26.552 255.842 26.188 255.114 25.46C254.386 24.732 254.022 23.8307 254.022 22.756C254.022 21.6813 254.386 20.78 255.114 20.052C255.842 19.324 256.743 18.96 257.818 18.96C258.858 18.96 259.742 19.324 260.47 20.052C261.198 20.78 261.562 21.6813 261.562 22.756C261.562 23.8307 261.198 24.732 260.47 25.46C259.742 26.188 258.858 26.552 257.818 26.552ZM260.73 30.348V59H254.802V30.348H260.73ZM272.725 54.164H285.725V59H265.861V54.164L278.913 35.184H265.861V30.348H285.725V35.184L272.725 54.164ZM317.169 43.972C317.169 45.0467 317.1 46.0173 316.961 46.884H295.069C295.243 49.172 296.092 51.0093 297.617 52.396C299.143 53.7827 301.015 54.476 303.233 54.476C306.423 54.476 308.676 53.1413 309.993 50.472H316.389C315.523 53.1067 313.945 55.2733 311.657 56.972C309.404 58.636 306.596 59.468 303.233 59.468C300.495 59.468 298.033 58.8613 295.849 57.648C293.7 56.4 292.001 54.6667 290.753 52.448C289.54 50.1947 288.933 47.5947 288.933 44.648C288.933 41.7013 289.523 39.1187 290.701 36.9C291.915 34.6467 293.596 32.9133 295.745 31.7C297.929 30.4867 300.425 29.88 303.233 29.88C305.937 29.88 308.347 30.4693 310.461 31.648C312.576 32.8267 314.223 34.4907 315.401 36.64C316.58 38.7547 317.169 41.1987 317.169 43.972ZM310.981 42.1C310.947 39.916 310.167 38.1653 308.641 36.848C307.116 35.5307 305.227 34.872 302.973 34.872C300.928 34.872 299.177 35.5307 297.721 36.848C296.265 38.1307 295.399 39.8813 295.121 42.1H310.981ZM319.987 44.544C319.987 41.6667 320.576 39.1187 321.755 36.9C322.968 34.6813 324.598 32.9653 326.643 31.752C328.723 30.504 331.028 29.88 333.559 29.88C335.431 29.88 337.268 30.296 339.071 31.128C340.908 31.9253 342.364 33 343.439 34.352V20.52H349.419V59H343.439V54.684C342.468 56.0707 341.116 57.2147 339.383 58.116C337.684 59.0173 335.726 59.468 333.507 59.468C331.011 59.468 328.723 58.844 326.643 57.596C324.598 56.3133 322.968 54.5453 321.755 52.292C320.576 50.004 319.987 47.4213 319.987 44.544ZM343.439 44.648C343.439 42.672 343.023 40.956 342.191 39.5C341.394 38.044 340.336 36.9347 339.019 36.172C337.702 35.4093 336.28 35.028 334.755 35.028C333.23 35.028 331.808 35.4093 330.491 36.172C329.174 36.9 328.099 37.992 327.267 39.448C326.47 40.8693 326.071 42.568 326.071 44.544C326.071 46.52 326.47 48.2533 327.267 49.744C328.099 51.2347 329.174 52.3787 330.491 53.176C331.843 53.9387 333.264 54.32 334.755 54.32C336.28 54.32 337.702 53.9387 339.019 53.176C340.336 52.4133 341.394 51.304 342.191 49.848C343.023 48.3573 343.439 46.624 343.439 44.648ZM86.511 102.544C86.511 99.6667 87.1004 97.1187 88.279 94.9C89.4924 92.6813 91.1217 90.9653 93.167 89.752C95.247 88.504 97.5524 87.88 100.083 87.88C101.955 87.88 103.792 88.296 105.595 89.128C107.432 89.9253 108.888 91 109.963 92.352V78.52H115.943V117H109.963V112.684C108.992 114.071 107.64 115.215 105.907 116.116C104.208 117.017 102.25 117.468 100.031 117.468C97.535 117.468 95.247 116.844 93.167 115.596C91.1217 114.313 89.4924 112.545 88.279 110.292C87.1004 108.004 86.511 105.421 86.511 102.544ZM109.963 102.648C109.963 100.672 109.547 98.956 108.715 97.5C107.918 96.044 106.86 94.9347 105.543 94.172C104.226 93.4093 102.804 93.028 101.279 93.028C99.7537 93.028 98.3324 93.4093 97.015 94.172C95.6977 94.9 94.623 95.992 93.791 97.448C92.9937 98.8693 92.595 100.568 92.595 102.544C92.595 104.52 92.9937 106.253 93.791 107.744C94.623 109.235 95.6977 110.379 97.015 111.176C98.367 111.939 99.7884 112.32 101.279 112.32C102.804 112.32 104.226 111.939 105.543 111.176C106.86 110.413 107.918 109.304 108.715 107.848C109.547 106.357 109.963 104.624 109.963 102.648ZM125.705 84.552C124.631 84.552 123.729 84.188 123.001 83.46C122.273 82.732 121.909 81.8307 121.909 80.756C121.909 79.6813 122.273 78.78 123.001 78.052C123.729 77.324 124.631 76.96 125.705 76.96C126.745 76.96 127.629 77.324 128.357 78.052C129.085 78.78 129.449 79.6813 129.449 80.756C129.449 81.8307 129.085 82.732 128.357 83.46C127.629 84.188 126.745 84.552 125.705 84.552ZM128.617 88.348V117H122.689V88.348H128.617ZM149.816 87.88C152.069 87.88 154.08 88.348 155.848 89.284C157.651 90.22 159.055 91.6067 160.06 93.444C161.065 95.2813 161.568 97.5 161.568 100.1V117H155.692V100.984C155.692 98.4187 155.051 96.46 153.768 95.108C152.485 93.7213 150.735 93.028 148.516 93.028C146.297 93.028 144.529 93.7213 143.212 95.108C141.929 96.46 141.288 98.4187 141.288 100.984V117H135.36V88.348H141.288V91.624C142.259 90.4453 143.489 89.5267 144.98 88.868C146.505 88.2093 148.117 87.88 149.816 87.88ZM179.634 87.88C181.852 87.88 183.811 88.3307 185.51 89.232C187.243 90.0987 188.595 91.1907 189.566 92.508V88.348H195.546V117.468C195.546 120.103 194.991 122.443 193.882 124.488C192.772 126.568 191.16 128.197 189.046 129.376C186.966 130.555 184.47 131.144 181.558 131.144C177.675 131.144 174.451 130.225 171.886 128.388C169.32 126.585 167.864 124.124 167.518 121.004H173.394C173.844 122.495 174.798 123.691 176.254 124.592C177.744 125.528 179.512 125.996 181.558 125.996C183.95 125.996 185.874 125.268 187.33 123.812C188.82 122.356 189.566 120.241 189.566 117.468V112.684C188.56 114.036 187.191 115.18 185.458 116.116C183.759 117.017 181.818 117.468 179.634 117.468C177.138 117.468 174.85 116.844 172.77 115.596C170.724 114.313 169.095 112.545 167.882 110.292C166.703 108.004 166.114 105.421 166.114 102.544C166.114 99.6667 166.703 97.1187 167.882 94.9C169.095 92.6813 170.724 90.9653 172.77 89.752C174.85 88.504 177.138 87.88 179.634 87.88ZM189.566 102.648C189.566 100.672 189.15 98.956 188.318 97.5C187.52 96.044 186.463 94.9347 185.146 94.172C183.828 93.4093 182.407 93.028 180.882 93.028C179.356 93.028 177.935 93.4093 176.618 94.172C175.3 94.9 174.226 95.992 173.394 97.448C172.596 98.8693 172.198 100.568 172.198 102.544C172.198 104.52 172.596 106.253 173.394 107.744C174.226 109.235 175.3 110.379 176.618 111.176C177.97 111.939 179.391 112.32 180.882 112.32C182.407 112.32 183.828 111.939 185.146 111.176C186.463 110.413 187.52 109.304 188.318 107.848C189.15 106.357 189.566 104.624 189.566 102.648ZM35.172 149.624C35.172 151.461 34.7387 153.195 33.872 154.824C33.0053 156.453 31.6187 157.788 29.712 158.828C27.8053 159.833 25.3613 160.336 22.38 160.336H15.828V175H9.9V138.86H22.38C25.1533 138.86 27.4933 139.345 29.4 140.316C31.3413 141.252 32.78 142.535 33.716 144.164C34.6867 145.793 35.172 147.613 35.172 149.624ZM22.38 155.5C24.6333 155.5 26.3147 154.997 27.424 153.992C28.5333 152.952 29.088 151.496 29.088 149.624C29.088 145.672 26.852 143.696 22.38 143.696H15.828V155.5H22.38ZM45.7138 150.508C46.5804 149.052 47.7244 147.925 49.1458 147.128C50.6018 146.296 52.3178 145.88 54.2938 145.88V152.016H52.7858C50.4631 152.016 48.6951 152.605 47.4818 153.784C46.3031 154.963 45.7138 157.008 45.7138 159.92V175H39.7858V146.348H45.7138V150.508ZM71.1308 175.468C68.4268 175.468 65.9828 174.861 63.7988 173.648C61.6148 172.4 59.8988 170.667 58.6508 168.448C57.4028 166.195 56.7788 163.595 56.7788 160.648C56.7788 157.736 57.4201 155.153 58.7028 152.9C59.9855 150.647 61.7361 148.913 63.9548 147.7C66.1735 146.487 68.6521 145.88 71.3908 145.88C74.1295 145.88 76.6081 146.487 78.8268 147.7C81.0455 148.913 82.7961 150.647 84.0788 152.9C85.3615 155.153 86.0028 157.736 86.0028 160.648C86.0028 163.56 85.3441 166.143 84.0268 168.396C82.7095 170.649 80.9068 172.4 78.6188 173.648C76.3655 174.861 73.8695 175.468 71.1308 175.468ZM71.1308 170.32C72.6561 170.32 74.0775 169.956 75.3948 169.228C76.7468 168.5 77.8388 167.408 78.6708 165.952C79.5028 164.496 79.9188 162.728 79.9188 160.648C79.9188 158.568 79.5201 156.817 78.7228 155.396C77.9255 153.94 76.8681 152.848 75.5508 152.12C74.2335 151.392 72.8121 151.028 71.2868 151.028C69.7615 151.028 68.3401 151.392 67.0228 152.12C65.7401 152.848 64.7175 153.94 63.9548 155.396C63.1921 156.817 62.8108 158.568 62.8108 160.648C62.8108 163.733 63.5908 166.125 65.1508 167.824C66.7455 169.488 68.7388 170.32 71.1308 170.32ZM97.739 151.184V167.044C97.739 168.119 97.9816 168.899 98.467 169.384C98.987 169.835 99.8536 170.06 101.067 170.06H104.707V175H100.027C97.3576 175 95.3123 174.376 93.891 173.128C92.4696 171.88 91.759 169.852 91.759 167.044V151.184H88.379V146.348H91.759V139.224H97.739V146.348H104.707V151.184H97.739ZM121.559 175.468C118.855 175.468 116.411 174.861 114.227 173.648C112.043 172.4 110.327 170.667 109.079 168.448C107.831 166.195 107.207 163.595 107.207 160.648C107.207 157.736 107.848 155.153 109.131 152.9C110.413 150.647 112.164 148.913 114.383 147.7C116.601 146.487 119.08 145.88 121.819 145.88C124.557 145.88 127.036 146.487 129.255 147.7C131.473 148.913 133.224 150.647 134.507 152.9C135.789 155.153 136.431 157.736 136.431 160.648C136.431 163.56 135.772 166.143 134.455 168.396C133.137 170.649 131.335 172.4 129.047 173.648C126.793 174.861 124.297 175.468 121.559 175.468ZM121.559 170.32C123.084 170.32 124.505 169.956 125.823 169.228C127.175 168.5 128.267 167.408 129.099 165.952C129.931 164.496 130.347 162.728 130.347 160.648C130.347 158.568 129.948 156.817 129.151 155.396C128.353 153.94 127.296 152.848 125.979 152.12C124.661 151.392 123.24 151.028 121.715 151.028C120.189 151.028 118.768 151.392 117.451 152.12C116.168 152.848 115.145 153.94 114.383 155.396C113.62 156.817 113.239 158.568 113.239 160.648C113.239 163.733 114.019 166.125 115.579 167.824C117.173 169.488 119.167 170.32 121.559 170.32ZM139.275 160.648C139.275 157.701 139.864 155.119 141.043 152.9C142.256 150.647 143.92 148.913 146.035 147.7C148.149 146.487 150.576 145.88 153.315 145.88C156.781 145.88 159.641 146.712 161.895 148.376C164.183 150.005 165.725 152.345 166.523 155.396H160.127C159.607 153.975 158.775 152.865 157.631 152.068C156.487 151.271 155.048 150.872 153.315 150.872C150.888 150.872 148.947 151.739 147.491 153.472C146.069 155.171 145.359 157.563 145.359 160.648C145.359 163.733 146.069 166.143 147.491 167.876C148.947 169.609 150.888 170.476 153.315 170.476C156.747 170.476 159.017 168.968 160.127 165.952H166.523C165.691 168.864 164.131 171.187 161.843 172.92C159.555 174.619 156.712 175.468 153.315 175.468C150.576 175.468 148.149 174.861 146.035 173.648C143.92 172.4 142.256 170.667 141.043 168.448C139.864 166.195 139.275 163.595 139.275 160.648ZM183.818 175.468C181.114 175.468 178.67 174.861 176.486 173.648C174.302 172.4 172.586 170.667 171.338 168.448C170.09 166.195 169.466 163.595 169.466 160.648C169.466 157.736 170.108 155.153 171.39 152.9C172.673 150.647 174.424 148.913 176.642 147.7C178.861 146.487 181.34 145.88 184.078 145.88C186.817 145.88 189.296 146.487 191.514 147.7C193.733 148.913 195.484 150.647 196.766 152.9C198.049 155.153 198.69 157.736 198.69 160.648C198.69 163.56 198.032 166.143 196.714 168.396C195.397 170.649 193.594 172.4 191.306 173.648C189.053 174.861 186.557 175.468 183.818 175.468ZM183.818 170.32C185.344 170.32 186.765 169.956 188.082 169.228C189.434 168.5 190.526 167.408 191.358 165.952C192.19 164.496 192.606 162.728 192.606 160.648C192.606 158.568 192.208 156.817 191.41 155.396C190.613 153.94 189.556 152.848 188.238 152.12C186.921 151.392 185.5 151.028 183.974 151.028C182.449 151.028 181.028 151.392 179.71 152.12C178.428 152.848 177.405 153.94 176.642 155.396C175.88 156.817 175.498 158.568 175.498 160.648C175.498 163.733 176.278 166.125 177.838 167.824C179.433 169.488 181.426 170.32 183.818 170.32ZM209.439 136.52V175H203.511V136.52H209.439Z" fill="black"/>
<path d="M29.244 98.436C31.1853 98.7827 32.832 99.8053 34.184 101.504C35.536 103.203 36.212 105.127 36.212 107.276C36.212 109.113 35.7267 110.777 34.756 112.268C33.82 113.724 32.4507 114.885 30.648 115.752C28.8453 116.584 26.748 117 24.356 117H9.9V80.86H23.68C26.1413 80.86 28.256 81.276 30.024 82.108C31.792 82.94 33.1267 84.0667 34.028 85.488C34.9293 86.8747 35.38 88.4347 35.38 90.168C35.38 92.248 34.8253 93.9813 33.716 95.368C32.6067 96.7547 31.116 97.7773 29.244 98.436ZM15.828 96.044H23.16C25.1013 96.044 26.6093 95.6107 27.684 94.744C28.7933 93.8427 29.348 92.56 29.348 90.896C29.348 89.2667 28.7933 88.0013 27.684 87.1C26.6093 86.164 25.1013 85.696 23.16 85.696H15.828V96.044ZM23.836 112.164C25.8467 112.164 27.424 111.679 28.568 110.708C29.712 109.737 30.284 108.385 30.284 106.652C30.284 104.884 29.6773 103.48 28.464 102.44C27.2507 101.4 25.6387 100.88 23.628 100.88H15.828V112.164H23.836ZM44.6299 84.552C43.5552 84.552 42.6539 84.188 41.9259 83.46C41.1979 82.732 40.8339 81.8307 40.8339 80.756C40.8339 79.6813 41.1979 78.78 41.9259 78.052C42.6539 77.324 43.5552 76.96 44.6299 76.96C45.6699 76.96 46.5539 77.324 47.2819 78.052C48.0099 78.78 48.3739 79.6813 48.3739 80.756C48.3739 81.8307 48.0099 82.732 47.2819 83.46C46.5539 84.188 45.6699 84.552 44.6299 84.552ZM47.5419 88.348V117H41.6139V88.348H47.5419ZM52.3088 102.544C52.3088 99.6667 52.8982 97.1187 54.0768 94.9C55.2902 92.6813 56.9195 90.9653 58.9648 89.752C61.0448 88.504 63.3502 87.88 65.8808 87.88C67.7528 87.88 69.5902 88.296 71.3928 89.128C73.2302 89.9253 74.6862 91 75.7608 92.352V78.52H81.7408V117H75.7608V112.684C74.7902 114.071 73.4382 115.215 71.7048 116.116C70.0062 117.017 68.0475 117.468 65.8288 117.468C63.3328 117.468 61.0448 116.844 58.9648 115.596C56.9195 114.313 55.2902 112.545 54.0768 110.292C52.8982 108.004 52.3088 105.421 52.3088 102.544ZM75.7608 102.648C75.7608 100.672 75.3448 98.956 74.5128 97.5C73.7155 96.044 72.6582 94.9347 71.3408 94.172C70.0235 93.4093 68.6022 93.028 67.0768 93.028C65.5515 93.028 64.1302 93.4093 62.8128 94.172C61.4955 94.9 60.4208 95.992 59.5888 97.448C58.7915 98.8693 58.3928 100.568 58.3928 102.544C58.3928 104.52 58.7915 106.253 59.5888 107.744C60.4208 109.235 61.4955 110.379 62.8128 111.176C64.1648 111.939 65.5862 112.32 67.0768 112.32C68.6022 112.32 70.0235 111.939 71.3408 111.176C72.6582 110.413 73.7155 109.304 74.5128 107.848C75.3448 106.357 75.7608 104.624 75.7608 102.648Z" fill="#6D1893"/>
<path d="M29.244 98.436C31.1853 98.7827 32.832 99.8053 34.184 101.504C35.536 103.203 36.212 105.127 36.212 107.276C36.212 109.113 35.7267 110.777 34.756 112.268C33.82 113.724 32.4507 114.885 30.648 115.752C28.8453 116.584 26.748 117 24.356 117H9.9V80.86H23.68C26.1413 80.86 28.256 81.276 30.024 82.108C31.792 82.94 33.1267 84.0667 34.028 85.488C34.9293 86.8747 35.38 88.4347 35.38 90.168C35.38 92.248 34.8253 93.9813 33.716 95.368C32.6067 96.7547 31.116 97.7773 29.244 98.436ZM15.828 96.044H23.16C25.1013 96.044 26.6093 95.6107 27.684 94.744C28.7933 93.8427 29.348 92.56 29.348 90.896C29.348 89.2667 28.7933 88.0013 27.684 87.1C26.6093 86.164 25.1013 85.696 23.16 85.696H15.828V96.044ZM23.836 112.164C25.8467 112.164 27.424 111.679 28.568 110.708C29.712 109.737 30.284 108.385 30.284 106.652C30.284 104.884 29.6773 103.48 28.464 102.44C27.2507 101.4 25.6387 100.88 23.628 100.88H15.828V112.164H23.836ZM44.6299 84.552C43.5552 84.552 42.6539 84.188 41.9259 83.46C41.1979 82.732 40.8339 81.8307 40.8339 80.756C40.8339 79.6813 41.1979 78.78 41.9259 78.052C42.6539 77.324 43.5552 76.96 44.6299 76.96C45.6699 76.96 46.5539 77.324 47.2819 78.052C48.0099 78.78 48.3739 79.6813 48.3739 80.756C48.3739 81.8307 48.0099 82.732 47.2819 83.46C46.5539 84.188 45.6699 84.552 44.6299 84.552ZM47.5419 88.348V117H41.6139V88.348H47.5419ZM52.3088 102.544C52.3088 99.6667 52.8982 97.1187 54.0768 94.9C55.2902 92.6813 56.9195 90.9653 58.9648 89.752C61.0448 88.504 63.3502 87.88 65.8808 87.88C67.7528 87.88 69.5902 88.296 71.3928 89.128C73.2302 89.9253 74.6862 91 75.7608 92.352V78.52H81.7408V117H75.7608V112.684C74.7902 114.071 73.4382 115.215 71.7048 116.116C70.0062 117.017 68.0475 117.468 65.8288 117.468C63.3328 117.468 61.0448 116.844 58.9648 115.596C56.9195 114.313 55.2902 112.545 54.0768 110.292C52.8982 108.004 52.3088 105.421 52.3088 102.544ZM75.7608 102.648C75.7608 100.672 75.3448 98.956 74.5128 97.5C73.7155 96.044 72.6582 94.9347 71.3408 94.172C70.0235 93.4093 68.6022 93.028 67.0768 93.028C65.5515 93.028 64.1302 93.4093 62.8128 94.172C61.4955 94.9 60.4208 95.992 59.5888 97.448C58.7915 98.8693 58.3928 100.568 58.3928 102.544C58.3928 104.52 58.7915 106.253 59.5888 107.744C60.4208 109.235 61.4955 110.379 62.8128 111.176C64.1648 111.939 65.5862 112.32 67.0768 112.32C68.6022 112.32 70.0235 111.939 71.3408 111.176C72.6582 110.413 73.7155 109.304 74.5128 107.848C75.3448 106.357 75.7608 104.624 75.7608 102.648Z" fill="url(#paint1_linear)"/>
</g>
<defs>
<linearGradient id="paint0_linear" x1="186" y1="12" x2="186" y2="186" gradientUnits="userSpaceOnUse">
<stop stop-color="#FD397E"/>
<stop offset="0.307292" stop-color="#511298"/>
</linearGradient>
<linearGradient id="paint1_linear" x1="186" y1="12" x2="186" y2="186" gradientUnits="userSpaceOnUse">
<stop offset="0.229167" stop-color="#6F1993"/>
<stop offset="1" stop-color="#25DDEE"/>
</linearGradient>
<clipPath id="clip0">
<rect width="360" height="305" fill="white"/>
</clipPath>
</defs>
</svg>
