<svg width="398" height="61" viewBox="0 0 398 61" fill="none" xmlns="http://www.w3.org/2000/svg">
<rect width="398" height="61" fill="white"/>
<path d="M12.0803 44H15.7464V41.5078H15.9627C16.5497 42.6612 17.7752 44.2781 20.494 44.2781C24.2219 44.2781 27.0128 41.3224 27.0128 36.1115C27.0128 30.8388 24.1396 27.9759 20.4837 27.9759C17.6928 27.9759 16.5291 29.6545 15.9627 30.7976H15.8082V22.9091H12.0803V44ZM15.7362 36.0909C15.7362 33.022 17.0543 31.0344 19.4538 31.0344C21.9357 31.0344 23.2127 33.1456 23.2127 36.0909C23.2127 39.0568 21.9151 41.2195 19.4538 41.2195C17.0749 41.2195 15.7362 39.1598 15.7362 36.0909ZM39.9641 37.3473C39.9641 39.7571 38.2443 40.9517 36.5966 40.9517C34.8047 40.9517 33.6101 39.685 33.6101 37.6768V28.1818H29.8821V38.2536C29.8821 42.0536 32.0447 44.206 35.1548 44.206C37.5234 44.206 39.1917 42.9599 39.9126 41.1886H40.0774V44H43.6921V28.1818H39.9641V37.3473ZM47.2256 44H50.9536V28.1818H47.2256V44ZM49.0999 25.9368C50.2842 25.9368 51.2523 25.0305 51.2523 23.9183C51.2523 22.7958 50.2842 21.8896 49.0999 21.8896C47.9053 21.8896 46.9373 22.7958 46.9373 23.9183C46.9373 25.0305 47.9053 25.9368 49.0999 25.9368ZM58.2151 22.9091H54.4872V44H58.2151V22.9091ZM67.6187 44.2781C70.3375 44.2781 71.563 42.6612 72.15 41.5078H72.3765V44H76.0427V22.9091H72.3044V30.7976H72.15C71.5836 29.6545 70.4199 27.9759 67.629 27.9759C63.9731 27.9759 61.0999 30.8388 61.0999 36.1115C61.0999 41.3224 63.8907 44.2781 67.6187 44.2781ZM68.6588 41.2195C66.1975 41.2195 64.9 39.0568 64.9 36.0909C64.9 33.1456 66.177 31.0344 68.6588 31.0344C71.0583 31.0344 72.3765 33.022 72.3765 36.0909C72.3765 39.1598 71.0377 41.2195 68.6588 41.2195ZM93.5085 44.3089C98.1427 44.3089 101.088 41.0444 101.088 36.1527C101.088 31.2507 98.1427 27.9759 93.5085 27.9759C88.8743 27.9759 85.929 31.2507 85.929 36.1527C85.929 41.0444 88.8743 44.3089 93.5085 44.3089ZM93.5291 41.3224C90.9648 41.3224 89.7084 39.0362 89.7084 36.1424C89.7084 33.2486 90.9648 30.9315 93.5291 30.9315C96.0522 30.9315 97.3086 33.2486 97.3086 36.1424C97.3086 39.0362 96.0522 41.3224 93.5291 41.3224ZM107.68 34.7315C107.68 32.4453 109.06 31.1271 111.027 31.1271C112.953 31.1271 114.106 32.3938 114.106 34.505V44H117.834V33.9283C117.845 30.1385 115.682 27.9759 112.417 27.9759C110.049 27.9759 108.422 29.1087 107.701 30.8697H107.515V28.1818H103.952V44H107.68V34.7315ZM131.091 44L132.831 38.7994H140.761L142.511 44H146.59L139.154 22.9091H134.438L127.013 44H131.091ZM133.861 35.7305L136.714 27.2344H136.878L139.731 35.7305H133.861ZM161.05 28.1818H157.085L153.439 39.9322H153.274L149.639 28.1818H145.664L151.297 44H155.416L161.05 28.1818ZM167.428 44.3192C169.91 44.3192 171.393 43.1555 172.073 41.8271H172.196V44H175.78V33.4134C175.78 29.2322 172.371 27.9759 169.354 27.9759C166.028 27.9759 163.474 29.4588 162.65 32.3423L166.13 32.8366C166.501 31.7553 167.552 30.8285 169.374 30.8285C171.105 30.8285 172.052 31.7141 172.052 33.2692V33.331C172.052 34.402 170.929 34.4535 168.139 34.7521C165.07 35.0817 162.135 35.9982 162.135 39.5614C162.135 42.6715 164.411 44.3192 167.428 44.3192ZM168.396 41.5799C166.841 41.5799 165.729 40.8693 165.729 39.4996C165.729 38.0682 166.975 37.4709 168.643 37.234C169.622 37.1001 171.578 36.853 172.062 36.4616V38.3256C172.062 40.0866 170.641 41.5799 168.396 41.5799ZM182.957 22.9091H179.229V44H182.957V22.9091ZM191.042 44.3192C193.524 44.3192 195.007 43.1555 195.686 41.8271H195.81V44H199.394V33.4134C199.394 29.2322 195.985 27.9759 192.968 27.9759C189.641 27.9759 187.087 29.4588 186.264 32.3423L189.744 32.8366C190.115 31.7553 191.166 30.8285 192.988 30.8285C194.718 30.8285 195.666 31.7141 195.666 33.2692V33.331C195.666 34.402 194.543 34.4535 191.753 34.7521C188.684 35.0817 185.749 35.9982 185.749 39.5614C185.749 42.6715 188.025 44.3192 191.042 44.3192ZM192.01 41.5799C190.455 41.5799 189.343 40.8693 189.343 39.4996C189.343 38.0682 190.589 37.4709 192.257 37.234C193.235 37.1001 195.192 36.853 195.676 36.4616V38.3256C195.676 40.0866 194.255 41.5799 192.01 41.5799ZM206.57 34.7315C206.57 32.4453 207.95 31.1271 209.917 31.1271C211.843 31.1271 212.997 32.3938 212.997 34.505V44H216.725V33.9283C216.735 30.1385 214.572 27.9759 211.308 27.9759C208.939 27.9759 207.312 29.1087 206.591 30.8697H206.406V28.1818H202.842V44H206.57V34.7315ZM227.114 44.3089C231.089 44.3089 233.623 41.9506 233.89 38.5934H230.327C230.008 40.2926 228.782 41.271 227.145 41.271C224.818 41.271 223.314 39.3246 223.314 36.0909C223.314 32.8984 224.849 30.983 227.145 30.983C228.937 30.983 230.039 32.1364 230.327 33.6605H233.89C233.633 30.2312 230.955 27.9759 227.094 27.9759C222.459 27.9759 219.535 31.3228 219.535 36.1527C219.535 40.9414 222.387 44.3089 227.114 44.3089ZM240.38 34.7315C240.38 32.4453 241.801 31.1271 243.799 31.1271C245.755 31.1271 246.909 32.3732 246.909 34.505V44H250.637V33.9283C250.637 30.1076 248.474 27.9759 245.189 27.9759C242.759 27.9759 241.214 29.0778 240.483 30.8697H240.297V22.9091H236.652V44H240.38V34.7315ZM261.14 44.3089C264.826 44.3089 267.36 42.5067 268.019 39.7571L264.538 39.3658C264.033 40.7045 262.798 41.4048 261.191 41.4048C258.781 41.4048 257.185 39.8189 257.154 37.1104H268.173V35.9673C268.173 30.4165 264.837 27.9759 260.944 27.9759C256.413 27.9759 253.457 31.3022 253.457 36.1836C253.457 41.1474 256.371 44.3089 261.14 44.3089ZM257.164 34.5977C257.278 32.5792 258.771 30.88 260.995 30.88C263.137 30.88 264.579 32.4453 264.6 34.5977H257.164Z" fill="black"/>
<path d="M320.233 31.1434C321.22 29.4315 322.812 29.4315 323.799 31.1434L329.946 41.9781C330.933 43.69 330.125 45.0866 328.151 45.0866H315.769C313.817 45.0866 313.01 43.69 313.974 41.9781L320.233 31.1434ZM308.344 10.2849C309.331 8.57299 310.901 8.57299 311.888 10.2849L313.257 12.7627L316.487 18.4616C317.272 20.0835 317.272 21.9981 316.487 23.6199L305.652 42.4737C304.665 44.0054 303.028 44.974 301.211 45.0866H292.216C290.242 45.0866 289.434 43.7126 290.421 41.9781L308.344 10.2849Z" fill="#E84142"/>
<path d="M378.866 31.1434C379.853 29.4315 381.445 29.4315 382.432 31.1434L388.579 41.9781C389.566 43.69 388.758 45.0866 386.784 45.0866H374.402C372.45 45.0866 371.643 43.69 372.607 41.9781L378.866 31.1434ZM366.977 10.2849C367.964 8.57299 369.534 8.57299 370.521 10.2849L371.889 12.7627L375.12 18.4616C375.905 20.0835 375.905 21.9981 375.12 23.6199L364.285 42.4737C363.298 44.0054 361.661 44.974 359.844 45.0866H350.849C348.875 45.0866 348.067 43.7126 349.054 41.9781L366.977 10.2849Z" fill="#E84142"/>
<path d="M350.203 21.9435C351.19 23.6554 352.782 23.6554 353.769 21.9435L359.915 11.1088C360.902 9.39688 360.095 8.00031 358.121 8.00031H345.739C343.787 8.00031 342.98 9.39688 343.944 11.1088L350.203 21.9435ZM338.314 42.802C339.301 44.5139 340.871 44.5139 341.858 42.802L343.226 40.3242L346.456 34.6253C347.242 33.0035 347.242 31.0888 346.456 29.467L335.622 10.6132C334.635 9.08152 332.998 8.11294 331.181 8.00031H322.185C320.212 8.00031 319.404 9.37436 320.391 11.1088L338.314 42.802Z" fill="#E84142"/>
</svg>
