<svg width="2304" height="1274" viewBox="0 0 2304 1274" fill="none" xmlns="http://www.w3.org/2000/svg">
<rect width="2304" height="1274" fill="white"/>
<line x1="730.742" y1="340.469" x2="859.742" y2="462.469" stroke="#F4F4F4" stroke-width="40"/>
<line x1="1520.74" y1="1006.47" x2="1649.74" y2="1128.47" stroke="#F4F4F4" stroke-width="40"/>
<line x1="651.469" y1="1145.26" x2="773.469" y2="1016.26" stroke="#F4F4F4" stroke-width="40"/>
<line x1="1483.47" y1="411.258" x2="1605.47" y2="282.258" stroke="#F4F4F4" stroke-width="40"/>
<circle cx="1152" cy="743" r="489" stroke="#F4F4F4" stroke-width="40"/>
<path d="M1115.91 327.816C1156.17 327.816 1188.82 295.174 1188.82 254.908C1188.82 214.642 1156.17 182 1115.91 182C1075.64 182 1043 214.642 1043 254.908C1043 295.174 1075.64 327.816 1115.91 327.816Z" fill="#C7C7C7"/>
<path d="M1141.63 256.802C1144.15 252.439 1148.23 252.439 1150.76 256.802L1166.49 284.415C1169.01 288.779 1166.94 292.338 1161.89 292.338H1130.2C1125.21 292.338 1123.14 288.779 1125.61 284.415L1141.63 256.802ZM1111.2 203.642C1113.73 199.279 1117.75 199.279 1120.27 203.642L1123.77 209.957L1132.04 224.481C1134.05 228.615 1134.05 233.495 1132.04 237.628L1104.31 285.678C1101.79 289.582 1097.6 292.051 1092.95 292.338H1069.92C1064.87 292.338 1062.81 288.836 1065.33 284.415L1111.2 203.642Z" fill="#F4F4F4"/>
<path d="M1335.91 339.816C1366.79 339.816 1391.82 314.785 1391.82 283.908C1391.82 253.031 1366.79 228 1335.91 228C1305.03 228 1280 253.031 1280 283.908C1280 314.785 1305.03 339.816 1335.91 339.816Z" fill="#C7C7C7"/>
<path d="M1318.75 276.891L1335.96 259.685L1353.18 276.9L1363.19 266.888L1335.96 239.658L1308.74 266.879L1318.75 276.891ZM1291.66 283.96L1301.67 273.947L1311.68 283.959L1301.67 293.972L1291.66 283.96ZM1318.75 291.031L1335.96 308.238L1353.18 291.023L1363.19 301.03L1363.19 301.035L1335.96 328.264L1308.74 301.044L1308.73 301.03L1318.75 291.031ZM1360.24 283.965L1370.25 273.953L1380.26 283.965L1370.25 293.978L1360.24 283.965Z" fill="#F4F4F4"/>
<path d="M1345.86 283.956H1345.87L1335.96 274.052L1328.64 281.372H1328.64L1327.8 282.213L1326.07 283.948L1326.05 283.961L1326.07 283.975L1335.96 293.872L1345.87 283.967L1345.87 283.961L1345.86 283.956" fill="#F4F4F4"/>
<circle cx="1498" cy="394" r="51" fill="#C4C4C4"/>
<path d="M1476.53 394L1498.67 357.763L1520.82 394L1519.47 394.813L1498.67 407.421L1476.53 394Z" fill="#F4F4F4"/>
<path d="M1498.67 430.236L1520.82 399.368L1498.67 411.447L1476.53 399.368L1498.67 430.236Z" fill="#F4F4F4"/>
<path d="M1476.53 394L1498.67 357.763L1520.82 394L1519.47 394.813M1476.53 394L1498.67 407.421L1519.47 394.813M1476.53 394L1498.67 383.934L1519.47 394.813M1520.82 399.368L1498.67 430.236L1476.53 399.368L1498.67 411.447L1520.82 399.368Z" stroke="black" stroke-opacity="0.21"/>
<path d="M1498.67 357.763V429.565" stroke="black" stroke-opacity="0.21"/>
</svg>
