<svg width="162" height="36" viewBox="0 0 162 36" fill="none" xmlns="http://www.w3.org/2000/svg">
<rect x="1" y="5.59998" width="29.4" height="29.4" fill="#2BE2F4"/>
<rect x="6.59998" width="29.4" height="29.4" fill="#FD438C"/>
<rect x="6.59998" y="5.59998" width="23.8" height="23.8" fill="#55169B"/>
<path d="M1 5.6L6.6 0V5.6H1Z" fill="#F89601"/>
<path d="M36 29.4L30.4 35L30.4 29.4L36 29.4Z" fill="#F89601"/>
<path d="M63.9318 28.9453C66.6911 28.9453 68.1265 27.3818 68.7829 25.9822H68.9832V28.672H73.6563V6.27927H68.9276V14.6984H68.7829C68.1487 13.3317 66.7802 11.6588 63.9207 11.6588C60.171 11.6588 57 14.5235 57 20.2966C57 25.9166 60.0375 28.9453 63.9318 28.9453ZM65.4339 25.2387C63.1084 25.2387 61.84 23.205 61.84 20.2747C61.84 17.3663 63.0862 15.3654 65.4339 15.3654C67.737 15.3654 69.0277 17.2788 69.0277 20.2747C69.0277 23.2706 67.7148 25.2387 65.4339 25.2387Z" fill="#333333"/>
<path d="M84.6526 29C88.8806 29 91.729 26.9772 92.3966 23.861L88.0128 23.5768C87.5343 24.856 86.3104 25.523 84.7305 25.523C82.3605 25.523 80.8585 23.9813 80.8585 21.4774V21.4665H92.4967V20.1872C92.4967 14.4797 88.9808 11.6588 84.4634 11.6588C79.4343 11.6588 76.1742 15.1686 76.1742 20.3513C76.1742 25.6761 79.3898 29 84.6526 29ZM80.8585 18.58C80.9586 16.6665 82.4384 15.1358 84.5413 15.1358C86.5997 15.1358 88.0239 16.579 88.035 18.58H80.8585Z" fill="#333333"/>
<path d="M94.9896 28.672H99.6627V25.9822H99.8741C100.531 27.3818 101.966 28.9453 104.725 28.9453C108.62 28.9453 111.657 25.9166 111.657 20.2966C111.657 14.5235 108.486 11.6588 104.736 11.6588C101.877 11.6588 100.508 13.3317 99.8741 14.6984H99.7295V6.27927H94.9896V28.672ZM99.6293 20.2747C99.6293 17.2788 100.92 15.3654 103.223 15.3654C105.571 15.3654 106.817 17.3663 106.817 20.2747C106.817 23.205 105.549 25.2387 103.223 25.2387C100.942 25.2387 99.6293 23.2706 99.6293 20.2747Z" fill="#333333"/>
<path d="M114.13 28.672H118.87V11.8775H114.13V28.672ZM116.511 9.71253C117.925 9.71253 119.082 8.65194 119.082 7.3508C119.082 6.06059 117.925 5 116.511 5C115.11 5 113.952 6.06059 113.952 7.3508C113.952 8.65194 115.11 9.71253 116.511 9.71253Z" fill="#333333"/>
<path d="M128.275 28.9453C131.035 28.9453 132.47 27.3818 133.127 25.9822H133.327V28.672H138V6.27927H133.271V14.6984H133.127C132.492 13.3317 131.124 11.6588 128.264 11.6588C124.515 11.6588 121.344 14.5235 121.344 20.2966C121.344 25.9166 124.381 28.9453 128.275 28.9453ZM129.778 25.2387C127.452 25.2387 126.184 23.205 126.184 20.2747C126.184 17.3663 127.43 15.3654 129.778 15.3654C132.081 15.3654 133.371 17.2788 133.371 20.2747C133.371 23.2706 132.058 25.2387 129.778 25.2387Z" fill="#333333"/>
</svg>
