<svg width="162" height="36" viewBox="0 0 162 36" fill="none" xmlns="http://www.w3.org/2000/svg">
<path d="M66.427 27.7244C72.2057 27.7244 75.6323 24.1782 75.6323 18.2986C75.6323 12.4373 72.2057 8.9095 66.5567 8.9095H60V27.7244H66.427ZM63.4357 24.7753V11.8585H66.3622C70.2147 11.8585 72.2243 13.9899 72.2243 18.2986C72.2243 22.6256 70.2147 24.7753 66.2603 24.7753H63.4357ZM85.0459 28C88.3613 28 90.6394 26.3922 91.2321 23.9394L88.102 23.5903C87.6482 24.7846 86.5369 25.4093 85.0922 25.4093C82.9252 25.4093 81.4898 23.9945 81.4619 21.5783H91.3711V20.5585C91.3711 15.6068 88.3706 13.4295 84.8699 13.4295C80.7951 13.4295 78.1373 16.3969 78.1373 20.7515C78.1373 25.1796 80.7582 28 85.0459 28ZM81.4712 19.3367C81.5731 17.536 82.9159 16.0202 84.9163 16.0202C86.8425 16.0202 88.139 17.4167 88.1576 19.3367H81.4712ZM94.3553 27.7244H102.033C106.376 27.7244 108.505 25.5287 108.505 22.5981C108.505 19.7501 106.468 18.0781 104.45 17.977V17.7933C106.302 17.3615 107.765 16.0753 107.765 13.7878C107.765 10.9858 105.728 8.9095 101.616 8.9095H94.3553V27.7244ZM97.7911 24.8764V19.3643H101.579C103.699 19.3643 105.014 20.6505 105.014 22.3317C105.014 23.8291 103.977 24.8764 101.486 24.8764H97.7911ZM97.7911 16.9114V11.7207H101.264C103.283 11.7207 104.329 12.7772 104.329 14.2288C104.329 15.8824 102.977 16.9114 101.19 16.9114H97.7911ZM111.346 27.7244H114.699V13.6132H111.346V27.7244ZM113.032 11.6105C114.097 11.6105 114.967 10.802 114.967 9.80982C114.967 8.80845 114.097 8 113.032 8C111.958 8 111.087 8.80845 111.087 9.80982C111.087 10.802 111.958 11.6105 113.032 11.6105ZM123.425 27.9725C125.87 27.9725 126.972 26.5301 127.5 25.5012H127.704V27.7244H131V8.9095H127.639V15.9467H127.5C126.99 14.9269 125.944 13.4295 123.434 13.4295C120.147 13.4295 117.563 15.9834 117.563 20.6872C117.563 25.3358 120.072 27.9725 123.425 27.9725ZM124.36 25.2439C122.147 25.2439 120.98 23.3147 120.98 20.6688C120.98 18.0414 122.129 16.158 124.36 16.158C126.518 16.158 127.704 17.9311 127.704 20.6688C127.704 23.4065 126.5 25.2439 124.36 25.2439Z" fill="#2C2F3B" stroke="#282B34" stroke-width="0.3" stroke-linejoin="round"/>
<path d="M8.46289 0.960938L36 27.5L29.4629 33.9609L3 6.5L8.46289 0.960938Z" fill="#FDA829"/>
<path d="M32.7756 0H10.9609C8.7518 0 6.96094 1.79086 6.96094 4V25.1666C6.96094 27.3757 8.7518 29.1666 10.9609 29.1666H32.7756C34.9848 29.1666 36.7756 27.3757 36.7756 25.1666V4C36.7756 1.79086 34.9848 0 32.7756 0Z" fill="#FD397E"/>
<path d="M26.8147 5.83594H5C2.79086 5.83594 1 7.6268 1 9.83594V31.0025C1 33.2117 2.79086 35.0025 5 35.0025H26.8147C29.0238 35.0025 30.8147 33.2117 30.8147 31.0025V9.83594C30.8147 7.6268 29.0238 5.83594 26.8147 5.83594Z" fill="#25DDEE"/>
<path fill-rule="evenodd" clip-rule="evenodd" d="M30.8141 29.1641H10.9609C8.7518 29.1641 6.96094 27.3732 6.96094 25.1641V5.83203H26.8141C29.0232 5.83203 30.8141 7.62289 30.8141 9.83203V29.1641Z" fill="#511298"/>
</svg>
