<svg width="162" height="36" viewBox="0 0 162 36" fill="none" xmlns="http://www.w3.org/2000/svg">
<path d="M65.427 25.7244C71.2057 25.7244 74.6323 22.1782 74.6323 16.2986C74.6323 10.4373 71.2057 6.9095 65.5567 6.9095H59V25.7244H65.427ZM62.4357 22.7753V9.85851H65.3622C69.2147 9.85851 71.2243 11.9899 71.2243 16.2986C71.2243 20.6256 69.2147 22.7753 65.2603 22.7753H62.4357ZM84.0459 26C87.3613 26 89.6394 24.3922 90.2321 21.9394L87.102 21.5903C86.6482 22.7846 85.5369 23.4093 84.0922 23.4093C81.9252 23.4093 80.4898 21.9945 80.4619 19.5783H90.3711V18.5585C90.3711 13.6068 87.3706 11.4295 83.8699 11.4295C79.7951 11.4295 77.1373 14.3969 77.1373 18.7515C77.1373 23.1796 79.7582 26 84.0459 26ZM80.4712 17.3367C80.5731 15.536 81.9159 14.0202 83.9163 14.0202C85.8425 14.0202 87.139 15.4167 87.1576 17.3367H80.4712ZM93.3553 25.7244H101.033C105.376 25.7244 107.505 23.5287 107.505 20.5981C107.505 17.7501 105.468 16.0781 103.45 15.977V15.7933C105.302 15.3615 106.765 14.0753 106.765 11.7878C106.765 8.98576 104.728 6.9095 100.616 6.9095H93.3553V25.7244ZM96.7911 22.8764V17.3643H100.579C102.699 17.3643 104.014 18.6505 104.014 20.3317C104.014 21.8291 102.977 22.8764 100.486 22.8764H96.7911ZM96.7911 14.9114V9.72072H100.264C102.283 9.72072 103.329 10.7772 103.329 12.2288C103.329 13.8824 101.977 14.9114 100.19 14.9114H96.7911ZM110.346 25.7244H113.699V11.6132H110.346V25.7244ZM112.032 9.61047C113.097 9.61047 113.967 8.80202 113.967 7.80982C113.967 6.80845 113.097 6 112.032 6C110.958 6 110.087 6.80845 110.087 7.80982C110.087 8.80202 110.958 9.61047 112.032 9.61047ZM122.425 25.9725C124.87 25.9725 125.972 24.5301 126.5 23.5012H126.704V25.7244H130V6.9095H126.639V13.9467H126.5C125.99 12.9269 124.944 11.4295 122.434 11.4295C119.147 11.4295 116.563 13.9834 116.563 18.6872C116.563 23.3358 119.072 25.9725 122.425 25.9725ZM123.36 23.2439C121.147 23.2439 119.98 21.3147 119.98 18.6688C119.98 16.0414 121.129 14.158 123.36 14.158C125.518 14.158 126.704 15.9311 126.704 18.6688C126.704 21.4065 125.5 23.2439 123.36 23.2439Z" fill="#2C343C" stroke="#2C343C" stroke-width="0.5" stroke-linejoin="round"/>
<path d="M8.46289 0.960938L36 27.5L29.4629 33.9609L3 6.5L8.46289 0.960938Z" fill="#FDA829"/>
<path d="M32.7756 0H10.9609C8.7518 0 6.96094 1.79086 6.96094 4V25.1666C6.96094 27.3757 8.7518 29.1666 10.9609 29.1666H32.7756C34.9848 29.1666 36.7756 27.3757 36.7756 25.1666V4C36.7756 1.79086 34.9848 0 32.7756 0Z" fill="#FD397E"/>
<path d="M26.8147 5.83594H5C2.79086 5.83594 1 7.6268 1 9.83594V31.0025C1 33.2117 2.79086 35.0025 5 35.0025H26.8147C29.0238 35.0025 30.8147 33.2117 30.8147 31.0025V9.83594C30.8147 7.6268 29.0238 5.83594 26.8147 5.83594Z" fill="#25DDEE"/>
<path fill-rule="evenodd" clip-rule="evenodd" d="M30.8141 29.1641H10.9609C8.7518 29.1641 6.96094 27.3732 6.96094 25.1641V5.83203H26.8141C29.0232 5.83203 30.8141 7.62289 30.8141 9.83203V29.1641Z" fill="#511298"/>
</svg>
