<svg width="162" height="36" viewBox="0 0 162 36" fill="none" xmlns="http://www.w3.org/2000/svg">
<rect x="1" y="5.59998" width="29.4" height="29.4" fill="#2BE2F4"/>
<rect x="6.59998" width="29.4" height="29.4" fill="#FD438C"/>
<rect x="6.59998" y="5.59998" width="23.8" height="23.8" fill="#55169B"/>
<path d="M1 5.6L6.6 0V5.6H1Z" fill="#F89601"/>
<path d="M36 29.4L30.4 35L30.4 29.4L36 29.4Z" fill="#F89601"/>
<path d="M65.0569 27.2397C67.4347 27.2397 68.6716 25.8686 69.2373 24.6413H69.4098V27H73.4368V7.36363H69.3619V14.7464H69.2373C68.6907 13.5479 67.5114 12.081 65.0473 12.081C61.8161 12.081 59.0835 14.593 59.0835 19.6555C59.0835 24.5838 61.701 27.2397 65.0569 27.2397ZM66.3513 23.9893C64.3473 23.9893 63.2543 22.206 63.2543 19.6364C63.2543 17.0859 64.3282 15.3313 66.3513 15.3313C68.336 15.3313 69.4482 17.0092 69.4482 19.6364C69.4482 22.2635 68.3168 23.9893 66.3513 23.9893Z" fill="#333333"/>
<path d="M82.9127 27.2876C86.5562 27.2876 89.0107 25.5138 89.586 22.7812L85.8083 22.5319C85.396 23.6538 84.3413 24.2386 82.9798 24.2386C80.9376 24.2386 79.6432 22.8867 79.6432 20.691V20.6815H89.6723V19.5596C89.6723 14.5547 86.6425 12.081 82.7497 12.081C78.4159 12.081 75.6066 15.1587 75.6066 19.7035C75.6066 24.3729 78.3775 27.2876 82.9127 27.2876ZM79.6432 18.1502C79.7295 16.4723 81.0047 15.13 82.8168 15.13C84.5906 15.13 85.8179 16.3956 85.8275 18.1502H79.6432Z" fill="#333333"/>
<path d="M91.8205 27H95.8475V24.6413H96.0296C96.5953 25.8686 97.8322 27.2397 100.21 27.2397C103.566 27.2397 106.183 24.5838 106.183 19.6555C106.183 14.593 103.451 12.081 100.22 12.081C97.7555 12.081 96.5762 13.5479 96.0296 14.7464H95.905V7.36363H91.8205V27ZM95.8187 19.6364C95.8187 17.0092 96.9309 15.3313 98.9156 15.3313C100.939 15.3313 102.013 17.0859 102.013 19.6364C102.013 22.206 100.92 23.9893 98.9156 23.9893C96.9501 23.9893 95.8187 22.2635 95.8187 19.6364Z" fill="#333333"/>
<path d="M108.315 27H112.399V12.2727H108.315V27ZM110.367 10.3743C111.584 10.3743 112.582 9.44424 112.582 8.30326C112.582 7.17187 111.584 6.24182 110.367 6.24182C109.159 6.24182 108.161 7.17187 108.161 8.30326C108.161 9.44424 109.159 10.3743 110.367 10.3743Z" fill="#333333"/>
<path d="M120.504 27.2397C122.882 27.2397 124.119 25.8686 124.685 24.6413H124.857V27H128.884V7.36363H124.809V14.7464H124.685C124.138 13.5479 122.959 12.081 120.495 12.081C117.263 12.081 114.531 14.593 114.531 19.6555C114.531 24.5838 117.148 27.2397 120.504 27.2397ZM121.798 23.9893C119.795 23.9893 118.702 22.206 118.702 19.6364C118.702 17.0859 119.775 15.3313 121.798 15.3313C123.783 15.3313 124.895 17.0092 124.895 19.6364C124.895 22.2635 123.764 23.9893 121.798 23.9893Z" fill="#333333"/>
</svg>
