<svg width="162" height="36" viewBox="0 0 162 36" fill="none" xmlns="http://www.w3.org/2000/svg">
<g clip-path="url(#clip0)">
<path d="M55.9091 25C62.1136 25 65.7926 21.1619 65.7926 14.7983C65.7926 8.45454 62.1136 4.63636 56.0483 4.63636H49.0085V25H55.9091ZM52.6974 21.8082V7.82812H55.8395C59.9759 7.82812 62.1335 10.1349 62.1335 14.7983C62.1335 19.4815 59.9759 21.8082 55.7301 21.8082H52.6974ZM75.8999 25.2983C79.4595 25.2983 81.9055 23.5582 82.5419 20.9034L79.1811 20.5256C78.6939 21.8182 77.5007 22.4943 75.9496 22.4943C73.6229 22.4943 72.0817 20.9631 72.0518 18.348H82.6911V17.2443C82.6911 11.8849 79.4695 9.52841 75.7109 9.52841C71.3359 9.52841 68.4822 12.7401 68.4822 17.4531C68.4822 22.2457 71.2962 25.2983 75.8999 25.2983ZM72.0618 15.9219C72.1712 13.973 73.6129 12.3324 75.7607 12.3324C77.8288 12.3324 79.2209 13.8438 79.2408 15.9219H72.0618ZM85.8952 25H94.1381C98.8015 25 101.088 22.6236 101.088 19.4517C101.088 16.3693 98.9009 14.5597 96.7333 14.4503V14.2514C98.7219 13.7841 100.293 12.392 100.293 9.91619C100.293 6.88352 98.1055 4.63636 93.6907 4.63636H85.8952V25ZM89.5842 21.9176V15.9517H93.6509C95.9279 15.9517 97.3398 17.3438 97.3398 19.1634C97.3398 20.7841 96.2262 21.9176 93.5515 21.9176H89.5842ZM89.5842 13.2969V7.67898H93.3129C95.4805 7.67898 96.604 8.82244 96.604 10.3935C96.604 12.1832 95.1523 13.2969 93.2333 13.2969H89.5842ZM104.138 25H107.738V9.72727H104.138V25ZM105.948 7.55966C107.092 7.55966 108.026 6.68466 108.026 5.61079C108.026 4.52699 107.092 3.65199 105.948 3.65199C104.795 3.65199 103.86 4.52699 103.86 5.61079C103.86 6.68466 104.795 7.55966 105.948 7.55966ZM117.107 25.2685C119.732 25.2685 120.915 23.7074 121.482 22.5938H121.701V25H125.24V4.63636H121.631V12.2528H121.482C120.935 11.1491 119.811 9.52841 117.117 9.52841C113.587 9.52841 110.813 12.2926 110.813 17.3835C110.813 22.4148 113.507 25.2685 117.107 25.2685ZM118.111 22.3153C115.735 22.3153 114.482 20.2273 114.482 17.3636C114.482 14.5199 115.715 12.4815 118.111 12.4815C120.428 12.4815 121.701 14.4006 121.701 17.3636C121.701 20.3267 120.408 22.3153 118.111 22.3153Z" fill="#2C2F3B"/>
<path d="M8.46289 0.960938L36 27.5L29.4629 33.9609L3 6.5L8.46289 0.960938Z" fill="#FDA829"/>
<rect x="6.96094" width="29.8147" height="29.1666" rx="4" fill="#FD397E"/>
<rect x="1" y="5.83594" width="29.8147" height="29.1666" rx="4" fill="#25DDEE"/>
<path fill-rule="evenodd" clip-rule="evenodd" d="M30.8141 29.1641L10.9609 29.1641C8.7518 29.1641 6.96094 27.3732 6.96094 25.1641L6.96094 5.83203L26.8141 5.83203C29.0232 5.83203 30.8141 7.62289 30.8141 9.83203L30.8141 29.1641Z" fill="#511298"/>
</g>
<defs>
<clipPath id="clip0">
<rect width="162" height="36" fill="white"/>
</clipPath>
</defs>
</svg>
