<svg width="120" height="120" viewBox="0 0 120 120" fill="none" xmlns="http://www.w3.org/2000/svg">
<path d="M60 120C93.1371 120 120 93.1371 120 60C120 26.8629 93.1371 0 60 0C26.8629 0 0 26.8629 0 60C0 93.1371 26.8629 120 60 120Z" fill="#E84142"/>
<path d="M81.1658 61.5591C83.2445 57.9686 86.5989 57.9686 88.6776 61.5591L101.622 84.2835C103.701 87.8741 102 90.8032 97.843 90.8032H71.7642C67.654 90.8032 65.9532 87.8741 67.9847 84.2835L81.1658 61.5591ZM56.1264 17.8111C58.2052 14.2205 61.5123 14.2205 63.591 17.8111L66.4729 23.0079L73.276 34.9607C74.9296 38.3623 74.9296 42.378 73.276 45.7796L50.4571 85.3229C48.3784 88.5355 44.9296 90.567 41.1028 90.8032H22.1579C18.0005 90.8032 16.2997 87.9213 18.3784 84.2835L56.1264 17.8111Z" fill="white"/>
</svg>
